<svg width="51" height="16" viewBox="0 0 51 16" fill="none" xmlns="http://www.w3.org/2000/svg">
<g clip-path="url(#clip0_516_8902)">
<path d="M12.0001 9.66663C11.3965 9.66594 10.8009 9.80513 10.2601 10.0733C10.2169 10.0926 10.1785 10.1212 10.1474 10.1568C10.1163 10.1925 10.0933 10.2345 10.0801 10.28C10.0597 10.3707 10.074 10.4658 10.1201 10.5466C10.6977 11.4846 11.0024 12.5651 11.0001 13.6666C11.0018 13.7545 11.0375 13.8383 11.0996 13.9004C11.1618 13.9626 11.2456 13.9983 11.3334 14H15.6668C15.7552 14 15.84 13.9648 15.9025 13.9023C15.965 13.8398 16.0001 13.755 16.0001 13.6666C16.0001 12.6058 15.5787 11.5883 14.8285 10.8382C14.0784 10.0881 13.061 9.66663 12.0001 9.66663Z" fill="#FD76B3"/>
<path d="M9.46167 6.83337C9.46167 7.16168 9.52633 7.48677 9.65197 7.79008C9.77761 8.0934 9.96176 8.36899 10.1939 8.60114C10.426 8.83329 10.7016 9.01744 11.005 9.14307C11.3083 9.26871 11.6334 9.33337 11.9617 9.33337C12.29 9.33337 12.6151 9.26871 12.9184 9.14307C13.2217 9.01744 13.4973 8.83329 13.7294 8.60114C13.9616 8.36899 14.1457 8.0934 14.2714 7.79008C14.397 7.48677 14.4617 7.16168 14.4617 6.83337C14.4617 6.50507 14.397 6.17998 14.2714 5.87667C14.1457 5.57335 13.9616 5.29775 13.7294 5.06561C13.4973 4.83346 13.2217 4.64931 12.9184 4.52368C12.6151 4.39804 12.29 4.33337 11.9617 4.33337C11.6334 4.33337 11.3083 4.39804 11.005 4.52368C10.7016 4.64931 10.426 4.83346 10.1939 5.06561C9.96176 5.29775 9.77761 5.57335 9.65197 5.87667C9.52633 6.17998 9.46167 6.50507 9.46167 6.83337Z" fill="#FD76B3"/>
<path d="M1.83411 5.16667C1.83411 6.00652 2.16774 6.81197 2.7616 7.40584C3.35547 7.9997 4.16092 8.33333 5.00077 8.33333C5.84063 8.33333 6.64608 7.9997 7.23994 7.40584C7.83381 6.81197 8.16744 6.00652 8.16744 5.16667C8.16744 4.32681 7.83381 3.52136 7.23994 2.9275C6.64608 2.33363 5.84063 2 5.00077 2C4.16092 2 3.35547 2.33363 2.7616 2.9275C2.16774 3.52136 1.83411 4.32681 1.83411 5.16667Z" fill="#FD76B3"/>
<path d="M10.0007 13.6666C10.0007 12.3405 9.47395 11.0688 8.53627 10.1311C7.59858 9.19341 6.32682 8.66663 5.00073 8.66663C3.67465 8.66663 2.40288 9.19341 1.4652 10.1311C0.527517 11.0688 0.000732422 12.3405 0.000732422 13.6666C0.000732422 13.755 0.0358514 13.8398 0.0983635 13.9023C0.160876 13.9648 0.24566 14 0.334066 14H9.6674C9.75581 14 9.84059 13.9648 9.9031 13.9023C9.96561 13.8398 10.0007 13.755 10.0007 13.6666Z" fill="#FD76B3"/>
</g>
<path d="M19 8H30M30 8L26.5 11.5M30 8L26.5 4.5" stroke="#C8EBFF" stroke-linecap="round" stroke-linejoin="round"/>
<path d="M33.3666 8.42451C33.568 12.6083 37.1284 15.8364 41.3188 15.6347L44.3538 15.4885C43.8341 15.5135 43.3241 15.4858 42.829 15.41C39.3319 14.8749 36.578 11.9433 36.4016 8.27837C36.2251 4.61341 37.925 1.4308 41.3545 0.562137C41.84 0.439155 42.345 0.362552 42.8647 0.337529L40.5893 0.483667C36.3988 0.685442 33.1651 4.24068 33.3666 8.42451Z" fill="#FFA624"/>
<path fill-rule="evenodd" clip-rule="evenodd" d="M50.2259 7.9586C50.2259 12.1539 46.8249 15.5549 42.6296 15.5549C38.4343 15.5549 35.0333 12.1539 35.0333 7.9586C35.0333 3.76328 38.4343 0.362305 42.6296 0.362305C46.8249 0.362305 50.2259 3.76328 50.2259 7.9586ZM42.6296 13.276C45.5663 13.276 47.947 10.8953 47.947 7.9586C47.947 5.02188 45.5663 2.64119 42.6296 2.64119C39.6929 2.64119 37.3122 5.02188 37.3122 7.9586C37.3122 10.8953 39.6929 13.276 42.6296 13.276Z" fill="#FDCA5B"/>
<path d="M45.0317 7.24315V7.76603H39.6984V7.24315H45.0317ZM45.0317 8.37256V8.89544H39.6984V8.37256H45.0317ZM44.5271 5.2876V10.6418H43.782L41.0605 6.71505H41.0134V10.6418H40.2029V5.2876H40.9533L43.6748 9.21962H43.7245V5.2876H44.5271Z" fill="#FDCA5B"/>
<defs>
<clipPath id="clip0_516_8902">
<rect width="16" height="16" fill="white"/>
</clipPath>
</defs>
</svg>
