<svg width="376" height="319" viewBox="0 0 376 319" fill="none" xmlns="http://www.w3.org/2000/svg">
<path d="M124.537 46.0398L124.425 47.2428L123.668 55.5279C123.517 57.2168 123.086 58.8658 122.393 60.3954C121.812 61.7098 121.039 62.9367 120.091 64.044L105.231 81.4267L110.107 71.0863C112.37 66.2985 110.976 60.5865 106.761 57.3761L93.9807 47.6411L90.9371 45.3229L60.9788 22.499L54.8517 17.8307L52.7243 16.2135C48.8281 13.25 44.2946 11.2186 39.4741 10.2945L30.9886 8.66933L24.7022 7.46639L9.25293 4.51085C13.2686 1.7704 18.1608 0.47983 23.1086 0.965783L50.326 3.65844C52.3578 3.8576 54.3178 4.51881 56.0627 5.57835L79.1609 19.655L121.007 39.826C123.373 40.9573 124.776 43.4428 124.545 46.0478L124.537 46.0398Z" fill="#7575E0"/>
<path d="M96.6416 91.4722L78.2205 113.029C78.101 113.157 77.9815 113.292 77.8619 113.42C76.6588 114.734 75.2327 115.826 73.663 116.646C72.6193 117.188 71.5118 117.61 70.3644 117.897L62.2932 119.928L61.1219 120.231C58.5803 120.868 55.9032 119.865 54.4132 117.706L27.9687 79.5146L10.4718 58.9055C9.15712 57.344 8.20101 55.5118 7.68311 53.5361L0.791093 27.0796C-0.0694107 23.7576 -0.0933078 20.3479 0.647682 17.0976C0.85484 16.1894 1.13368 15.2892 1.46832 14.4209L15.348 43.0124C16.7343 45.8485 18.6465 48.3898 20.989 50.5009L71.7906 96.1804C75.4079 99.4307 80.6905 100.06 84.9691 97.7498L96.6496 91.4722H96.6416Z" fill="#42429B"/>
<path d="M110.11 71.094L105.242 81.4265L96.6452 91.4801L84.9647 97.7577C80.686 100.068 75.4114 99.4386 71.7862 96.1883L20.9846 50.5088C18.6421 48.3977 16.7299 45.8484 15.3435 43.0203L1.46387 14.4288C2.30047 12.1823 3.53549 10.0871 5.13698 8.20702C6.34806 6.78899 7.74237 5.54622 9.24826 4.51855L24.6975 7.47411L30.9919 8.66907L39.4774 10.2942C44.2899 11.2263 48.8314 13.2498 52.7196 16.2133L106.764 57.3758C110.987 60.5943 112.373 66.3062 110.11 71.102V71.094Z" fill="#5D5DC9"/>
<path d="M75.5849 39.4041L68.6372 47.5379C68.183 48.0637 67.4101 48.1672 66.8365 47.7848L45.1327 33.0947C44.0092 32.33 43.7941 30.7606 44.6785 29.7249L54.8452 17.8311L60.9723 22.4994C60.4783 22.6985 60.0401 22.9853 59.7054 23.3837C58.5422 24.7539 58.9963 26.7694 60.7332 27.8927L75.2901 37.3807C75.9753 37.8268 76.1187 38.7828 75.5849 39.4041Z" fill="#42429B"/>
<path d="M84.2699 29.255L81.7202 32.2424C81.282 32.7602 80.5251 32.8717 79.9514 32.5053L64.9882 22.9376C63.7453 22.1489 62.1995 22.0214 60.9884 22.4994L54.8613 17.8311L58.5185 13.5611C59.2515 12.7007 60.5024 12.5095 61.4665 13.107L83.9751 27.2156C84.6842 27.6617 84.8276 28.6256 84.2858 29.255H84.2699Z" fill="#5D5DC9"/>
<path d="M15.1131 18.6972L11.6344 22.7668C11.0969 23.3955 11.1709 24.3409 11.7998 24.8783L13.7562 26.5502C14.385 27.0876 15.3306 27.0135 15.8681 26.3847L19.3468 22.3152C19.8843 21.6864 19.8102 20.741 19.1813 20.2036L17.225 18.5318C16.5961 17.9943 15.6506 18.0684 15.1131 18.6972Z" fill="#42429B"/>
<path d="M119.134 99.5264L375.07 318.229C375.07 318.229 355.764 293.78 345.351 274.605C334.937 255.429 314.803 223.572 302.549 213.104C283.1 196.486 246.998 201.162 216.737 175.303C193.145 155.14 194.364 127.823 175.091 111.357C156 95.0413 119.126 99.5264 119.126 99.5264H119.134Z" fill="#FDCA5B"/>
<path d="M116.242 112.479C116.242 112.479 113.653 128.731 128.512 141.43C147.428 157.593 159.291 153.005 179.282 170.085C199.273 187.165 196.588 207.543 217.12 225.085C239.541 244.244 292.168 262.806 292.168 262.806L116.242 112.479Z" fill="#FDCA5B"/>
<path d="M36.4494 2.28051L30.9915 8.66959L24.7051 7.46665L29.7007 1.61133L36.4494 2.28051Z" fill="#5D5DC9"/>
<path d="M30.9893 8.66973L23.1252 17.871C22.5914 18.5003 21.6433 18.572 21.0138 18.0382L19.0538 16.3653C18.4243 15.8315 18.3526 14.8835 18.8865 14.2542L24.6869 7.4668L30.9734 8.66973H30.9893Z" fill="#42429B"/>
<path d="M97.0681 107.541L99.57 103.924C100.175 103.048 101.323 102.745 102.287 103.199L107.593 105.709C109.721 106.712 111.705 104.099 110.159 102.323L106.478 98.0847C105.833 97.3438 105.769 96.2684 106.311 95.4558L113.864 84.1435C114.796 82.7493 116.876 82.8848 117.617 84.3904L130.086 109.66C132.317 114.177 128.15 119.204 123.298 117.849L98.2792 110.871C96.845 110.473 96.2235 108.768 97.0761 107.541H97.0681Z" fill="#FFA624"/>
<path d="M122.403 60.3958C121.822 61.7102 121.041 62.937 120.101 64.0444L119.479 64.7693L87.999 37.8746L89.1543 36.5283L122.403 60.4037V60.3958Z" fill="#5D5DC9"/>
<path d="M46.3946 86.5332L77.8667 113.42C76.6636 114.742 75.2294 115.834 73.6519 116.638L45.2393 87.8795L46.3946 86.5332Z" fill="#2E2E6D"/>
<path d="M93.9792 47.6406L88.9516 53.5199C88.5612 53.974 87.868 54.0377 87.4059 53.6394L86.1709 52.5798C85.7167 52.1895 85.661 51.4964 86.0514 51.0344L90.9435 45.3145L93.9871 47.6327L93.9792 47.6406Z" fill="#42429B"/>
<path d="M98.4331 42.4229L93.9792 47.6409L90.9355 45.3226L95.5328 39.9453C95.9232 39.4832 96.6164 39.4275 97.0786 39.8258L98.3136 40.8774C98.7757 41.2757 98.8315 41.9688 98.441 42.4229H98.4331Z" fill="#5D5DC9"/>
<path d="M272.366 219.246L333.693 271.657" stroke="#FFA624" stroke-width="3.05296" stroke-miterlimit="10"/>
<path d="M303.812 269.961L349.332 308.861" stroke="#FFA624" stroke-width="3.05296" stroke-miterlimit="10"/>
<path d="M157.297 162.987L179.853 182.266" stroke="#FFA624" stroke-width="3.05296" stroke-miterlimit="10"/>
<path d="M176.53 125.441L237.857 177.845" stroke="#FFA624" stroke-width="3.05296" stroke-miterlimit="10"/>
<path d="M198.28 182.585L251.902 228.416" stroke="#FFA624" stroke-width="3.05296" stroke-miterlimit="10"/>
<path d="M233.618 228.208L279.137 267.108" stroke="#FFA624" stroke-width="3.05296" stroke-miterlimit="10"/>
</svg>
