<svg width="1440" height="700" viewBox="0 0 1440 700" fill="none" xmlns="http://www.w3.org/2000/svg">
<g clip-path="url(#clip0_25_361)">
<path d="M1269.36 244.667C1217.62 258.553 1165.32 275.258 1112.9 294.848C1080.55 306.941 1048.96 319.831 1018.18 333.445C1013.7 335.429 1009.23 337.428 1004.78 339.436C999.485 327.263 995.835 314.135 994.138 300.289C987.023 242.126 1016.45 187.922 1064.41 160.693C1080.11 151.787 1097.78 145.764 1116.81 143.438C1186.64 134.89 1250.79 179.024 1269.37 244.667H1269.36Z" fill="#2E2E6D"/>
<path d="M1269.36 244.667C1217.62 258.553 1165.32 275.258 1112.9 294.848C1080.54 306.941 1048.95 319.83 1018.18 333.445C1012.4 320.715 1008.43 306.901 1006.64 292.29C1000.17 239.377 1023.94 189.731 1064.4 160.701C1080.1 151.794 1097.77 145.772 1116.8 143.446C1186.63 134.898 1250.78 179.032 1269.36 244.675V244.667Z" fill="#4F4FAA"/>
<mask id="mask0_25_361" style="mask-type:luminance" maskUnits="userSpaceOnUse" x="164" y="-175" width="1312" height="877">
<path d="M1475.83 -171.978L166.984 -175L164.998 698.925L1473.84 701.947L1475.83 -171.978Z" fill="white"/>
</mask>
<g mask="url(#mask0_25_361)">
<path d="M1639.57 1767.13C2369.4 1494.3 2838.44 945.285 2687.22 540.868C2535.99 136.451 1821.75 29.7788 1091.93 302.609C362.099 575.439 -106.948 1124.46 44.2797 1528.87C195.508 1933.29 909.744 2039.96 1639.57 1767.13Z" fill="#5D5DC9"/>
<path d="M1204.7 281.4C1121.23 312.509 698.346 480.067 461.732 763.513L342.488 778.107C535.759 595.644 804.324 429.457 1119.83 311.537C1148.16 300.95 1176.46 290.904 1204.69 281.4H1204.7Z" fill="#5D5DC9"/>
<path d="M1654.73 1742.3C911.697 2019.99 189.622 1924.83 41.9104 1529.73C-43.0723 1302.41 80.6092 1025.32 342.489 778.099L461.733 763.505C698.355 480.067 1121.23 312.509 1204.7 281.4C1917.09 41.5312 2590.58 144.083 2732.66 524.106C2880.37 919.201 2397.76 1464.61 1654.73 1742.3H1654.73Z" fill="#8B85F4"/>
<path d="M1219.24 276.103C1219.24 276.103 1214.14 277.871 1204.7 281.392Z" fill="#5ACDFF"/>
</g>
<path d="M1048.02 304.837C1052.14 304.837 1055.48 301.499 1055.48 297.381C1055.48 293.263 1052.14 289.924 1048.02 289.924C1043.9 289.924 1040.56 293.263 1040.56 297.381C1040.56 301.499 1043.9 304.837 1048.02 304.837Z" fill="#2E2E6D"/>
<path d="M1028.49 308.016C1030.41 308.016 1031.97 306.458 1031.97 304.535C1031.97 302.612 1030.41 301.054 1028.49 301.054C1026.57 301.054 1025.01 302.612 1025.01 304.535C1025.01 306.458 1026.57 308.016 1028.49 308.016Z" fill="#2E2E6D"/>
<path d="M1346.71 222.146C1360.61 218.561 1374.48 215.12 1388.32 211.813" stroke="#4F4FAA" stroke-width="4.31006" stroke-miterlimit="10"/>
<path d="M892.566 386.86C906.016 380.479 919.577 374.193 933.249 368.003C939.806 365.04 946.388 362.092 953.001 359.169C998.361 339.109 1044.92 320.109 1092.6 302.288C1132.83 287.256 1173 273.37 1213.05 260.632" stroke="#4F4FAA" stroke-width="4.31006" stroke-miterlimit="10"/>
<path d="M664.402 633.986C735.864 579.862 901.511 458.334 1055.25 417.554C1069.56 414.256 1091.13 409.158 1101.06 417.913C1109.71 427.456 1101.86 443.047 1094.08 455.18C1082.42 472.371 1067.79 484.337 1051.5 498.668C1022.05 524.32 984.661 557.142 957.579 587.223C944.433 601.834 934.186 615.488 929.366 626.458C879.361 752.423 1488.67 426.182 1485.65 428.038" stroke="#9F9FFF" stroke-width="7.54261" stroke-miterlimit="10"/>
<path d="M1465.27 261.563C1428.26 283.009 1390.89 305.459 1355.15 329.469C1338.15 340.798 1225.91 416.295 1259.79 426.859C1263.54 427.863 1268.92 427.95 1275.68 427.178C1300.11 423.999 1326.72 414.877 1352.6 405.652C1399.51 388.596 1446.38 367.644 1490 347.489" stroke="#9F9FFF" stroke-width="7.54261" stroke-miterlimit="10"/>
<path d="M541.809 408.374C543.842 408.374 545.49 406.82 545.49 404.904C545.49 402.988 543.842 401.434 541.809 401.434C539.777 401.434 538.129 402.988 538.129 404.904C538.129 406.82 539.777 408.374 541.809 408.374Z" fill="#5B5BD9"/>
<path d="M222.877 258.02C225.81 258.02 228.188 255.777 228.188 253.01C228.188 250.243 225.81 248 222.877 248C219.944 248 217.566 250.243 217.566 253.01C217.566 255.777 219.944 258.02 222.877 258.02Z" fill="#5B5BD9"/>
<path d="M162.499 673.444C164.802 673.444 166.669 671.68 166.669 669.504C166.669 667.328 164.802 665.564 162.499 665.564C160.195 665.564 158.328 667.328 158.328 669.504C158.328 671.68 160.195 673.444 162.499 673.444Z" fill="#5B5BD9"/>
<path d="M1187.58 435.303C1192.68 435.303 1196.81 431.408 1196.81 426.603C1196.81 421.798 1192.68 417.903 1187.58 417.903C1182.49 417.903 1178.36 421.798 1178.36 426.603C1178.36 431.408 1182.49 435.303 1187.58 435.303Z" fill="#5B5BD9"/>
<path d="M940.164 511.36C943.015 511.36 945.325 509.184 945.325 506.5C945.325 503.816 943.015 501.641 940.164 501.641C937.314 501.641 935.004 503.816 935.004 506.5C935.004 509.184 937.314 511.36 940.164 511.36Z" fill="#5B5BD9"/>
<path d="M1270.9 359.966C1273.75 359.966 1276.06 357.79 1276.06 355.106C1276.06 352.422 1273.75 350.246 1270.9 350.246C1268.05 350.246 1265.74 352.422 1265.74 355.106C1265.74 357.79 1268.05 359.966 1270.9 359.966Z" fill="#5B5BD9"/>
<path d="M514.69 583.758C516.579 583.758 518.11 582.312 518.11 580.528C518.11 578.744 516.579 577.298 514.69 577.298C512.801 577.298 511.27 578.744 511.27 580.528C511.27 582.312 512.801 583.758 514.69 583.758Z" fill="#5B5BD9"/>
<path d="M734.569 597.047C736.922 597.047 738.83 595.247 738.83 593.027C738.83 590.807 736.922 589.007 734.569 589.007C732.216 589.007 730.309 590.807 730.309 593.027C730.309 595.247 732.216 597.047 734.569 597.047Z" fill="#5B5BD9"/>
<path d="M789.94 632.005C792.293 632.005 794.201 630.206 794.201 627.986C794.201 625.766 792.293 623.966 789.94 623.966C787.587 623.966 785.68 625.766 785.68 627.986C785.68 630.206 787.587 632.005 789.94 632.005Z" fill="#5B5BD9"/>
<path d="M133.136 539.709C136.041 539.709 138.396 537.488 138.396 534.749C138.396 532.01 136.041 529.789 133.136 529.789C130.23 529.789 127.875 532.01 127.875 534.749C127.875 537.488 130.23 539.709 133.136 539.709Z" fill="#5B5BD9"/>
<path d="M37.8663 589.497C41.2356 589.497 43.967 586.922 43.967 583.747C43.967 580.571 41.2356 577.997 37.8663 577.997C34.497 577.997 31.7656 580.571 31.7656 583.747C31.7656 586.922 34.497 589.497 37.8663 589.497Z" fill="#5B5BD9"/>
<path d="M937.444 695.743C949.369 695.743 959.036 686.628 959.036 675.384C959.036 664.14 949.369 655.024 937.444 655.024C925.519 655.024 915.852 664.14 915.852 675.384C915.852 686.628 925.519 695.743 937.444 695.743Z" fill="#5B5BD9"/>
<path d="M152.186 665.574C154.087 665.574 155.627 664.123 155.627 662.334C155.627 660.544 154.087 659.094 152.186 659.094C150.286 659.094 148.746 660.544 148.746 662.334C148.746 664.123 150.286 665.574 152.186 665.574Z" fill="#5B5BD9"/>
<path d="M353.611 591.147C356.986 591.147 359.721 588.568 359.721 585.387C359.721 582.206 356.986 579.627 353.611 579.627C350.236 579.627 347.5 582.206 347.5 585.387C347.5 588.568 350.236 591.147 353.611 591.147Z" fill="#5B5BD9"/>
<path d="M808.45 485.401C811.162 485.401 813.36 483.328 813.36 480.771C813.36 478.214 811.162 476.141 808.45 476.141C805.738 476.141 803.539 478.214 803.539 480.771C803.539 483.328 805.738 485.401 808.45 485.401Z" fill="#5B5BD9"/>
<path d="M636.772 491.071C640.092 491.071 642.783 488.533 642.783 485.401C642.783 482.27 640.092 479.731 636.772 479.731C633.453 479.731 630.762 482.27 630.762 485.401C630.762 488.533 633.453 491.071 636.772 491.071Z" fill="#5B5BD9"/>
<path d="M885.572 351.086C888.317 351.086 890.543 348.986 890.543 346.396C890.543 343.806 888.317 341.707 885.572 341.707C882.827 341.707 880.602 343.806 880.602 346.396C880.602 348.986 882.827 351.086 885.572 351.086Z" fill="#5B5BD9"/>
<path d="M609.049 340.686C611.065 340.686 612.699 339.146 612.699 337.247C612.699 335.347 611.065 333.807 609.049 333.807C607.033 333.807 605.398 335.347 605.398 337.247C605.398 339.146 607.033 340.686 609.049 340.686Z" fill="#5B5BD9"/>
<path d="M511.028 293.028C514.944 293.028 518.119 290.038 518.119 286.349C518.119 282.66 514.944 279.669 511.028 279.669C507.112 279.669 503.938 282.66 503.938 286.349C503.938 290.038 507.112 293.028 511.028 293.028Z" fill="#5B5BD9"/>
<path d="M1249.9 266.679C1252.08 266.679 1253.85 265.01 1253.85 262.95C1253.85 260.89 1252.08 259.22 1249.9 259.22C1247.71 259.22 1245.95 260.89 1245.95 262.95C1245.95 265.01 1247.71 266.679 1249.9 266.679Z" fill="#5B5BD9"/>
<path d="M849.747 270.399C851.929 270.399 853.698 268.729 853.698 266.669C853.698 264.609 851.929 262.939 849.747 262.939C847.566 262.939 845.797 264.609 845.797 266.669C845.797 268.729 847.566 270.399 849.747 270.399Z" fill="#5B5BD9"/>
<path d="M503.585 692.083C506.026 692.083 508.005 690.216 508.005 687.913C508.005 685.61 506.026 683.743 503.585 683.743C501.143 683.743 499.164 685.61 499.164 687.913C499.164 690.216 501.143 692.083 503.585 692.083Z" fill="#5B5BD9"/>
<path d="M616.466 651.964C618.195 651.964 619.597 650.644 619.597 649.014C619.597 647.385 618.195 646.064 616.466 646.064C614.737 646.064 613.336 647.385 613.336 649.014C613.336 650.644 614.737 651.964 616.466 651.964Z" fill="#5B5BD9"/>
<path d="M1056.92 303.958C1059.1 303.958 1060.87 302.288 1060.87 300.228C1060.87 298.168 1059.1 296.498 1056.92 296.498C1054.73 296.498 1052.96 298.168 1052.96 300.228C1052.96 302.288 1054.73 303.958 1056.92 303.958Z" fill="#5B5BD9"/>
<path d="M1434.9 330.267C1437.72 330.267 1440 328.114 1440 325.457C1440 322.801 1437.72 320.647 1434.9 320.647C1432.08 320.647 1429.8 322.801 1429.8 325.457C1429.8 328.114 1432.08 330.267 1434.9 330.267Z" fill="#5B5BD9"/>
<path d="M718.95 324.917C720.442 324.917 721.651 323.776 721.651 322.367C721.651 320.959 720.442 319.817 718.95 319.817C717.459 319.817 716.25 320.959 716.25 322.367C716.25 323.776 717.459 324.917 718.95 324.917Z" fill="#5B5BD9"/>
<path d="M358.768 292.608C360.055 292.608 361.098 291.623 361.098 290.408C361.098 289.193 360.055 288.208 358.768 288.208C357.481 288.208 356.438 289.193 356.438 290.408C356.438 291.623 357.481 292.608 358.768 292.608Z" fill="#5B5BD9"/>
<path d="M2.33026 279.579C3.61723 279.579 4.66052 278.594 4.66052 277.379C4.66052 276.164 3.61723 275.179 2.33026 275.179C1.04329 275.179 0 276.164 0 277.379C0 278.594 1.04329 279.579 2.33026 279.579Z" fill="#5B5BD9"/>
</g>
<defs>
<clipPath id="clip0_25_361">
<rect width="1440" height="700" fill="white"/>
</clipPath>
</defs>
</svg>
