<svg width="47" height="16" viewBox="0 0 47 16" fill="none" xmlns="http://www.w3.org/2000/svg">
<g clip-path="url(#clip0_516_8917)">
<path d="M5.11385 6.14002C5.11217 6.11985 5.10652 6.10022 5.09722 6.08225C5.08792 6.06428 5.07516 6.04833 5.05966 6.03531C5.04417 6.0223 5.02626 6.01248 5.00695 6.00642C4.98764 6.00037 4.96733 5.99819 4.94718 6.00002C3.96261 6.01056 3.00307 6.31157 2.18889 6.8653C1.37472 7.41902 0.742155 8.2008 0.370533 9.11261C-0.00108957 10.0244 -0.0952265 11.0256 0.0999276 11.9907C0.295082 12.9558 0.770839 13.8418 1.46753 14.5376C2.16423 15.2334 3.05085 15.708 4.0162 15.9018C4.98155 16.0957 5.98265 16.0003 6.89397 15.6274C7.80528 15.2546 8.58623 14.621 9.13888 13.8061C9.69152 12.9912 9.99127 12.0313 10.0005 11.0467C10.0025 11.0081 9.9899 10.9702 9.96518 10.9406C9.94046 10.9109 9.90547 10.8917 9.86718 10.8867C8.69176 10.6599 7.61104 10.0868 6.76397 9.24091C5.91691 8.39504 5.34224 7.31512 5.11385 6.14002ZM6.26718 9.47335C6.26718 9.60596 6.2145 9.73314 6.12073 9.8269C6.02697 9.92067 5.89979 9.97335 5.76718 9.97335H4.50051C4.4115 9.9751 4.32672 10.0117 4.2644 10.0753C4.20207 10.1388 4.16716 10.2243 4.16718 10.3134C4.16614 10.3804 4.18618 10.446 4.22445 10.501C4.26273 10.5561 4.31732 10.5977 4.38051 10.62L5.66051 11.1334C5.9226 11.2401 6.14393 11.4274 6.29248 11.6683C6.44103 11.9092 6.50909 12.191 6.48682 12.4731C6.46455 12.7553 6.3531 13.023 6.16859 13.2375C5.98409 13.4521 5.7361 13.6024 5.46051 13.6667C5.42412 13.6769 5.39205 13.6986 5.36918 13.7287C5.34631 13.7588 5.33391 13.7956 5.33385 13.8334V14C5.33385 14.1326 5.28117 14.2598 5.1874 14.3536C5.09363 14.4473 4.96646 14.5 4.83385 14.5C4.70124 14.5 4.57406 14.4473 4.48029 14.3536C4.38653 14.2598 4.33385 14.1326 4.33385 14V13.8867C4.33385 13.8425 4.31629 13.8001 4.28503 13.7688C4.25378 13.7376 4.21138 13.72 4.16718 13.72H3.90051C3.76791 13.72 3.64073 13.6673 3.54696 13.5736C3.45319 13.4798 3.40051 13.3526 3.40051 13.22C3.40051 13.0874 3.45319 12.9602 3.54696 12.8665C3.64073 12.7727 3.76791 12.72 3.90051 12.72H5.16718C5.25559 12.72 5.34037 12.6849 5.40288 12.6224C5.46539 12.5599 5.50051 12.4751 5.50051 12.3867C5.50204 12.3205 5.48298 12.2554 5.44596 12.2005C5.40895 12.1455 5.3558 12.1035 5.29385 12.08L4.00051 11.56C3.75348 11.4616 3.5415 11.2916 3.39182 11.0719C3.24214 10.8521 3.16159 10.5926 3.16051 10.3267C3.15298 10.0185 3.25249 9.71717 3.44211 9.47406C3.63173 9.23096 3.89974 9.06109 4.20051 8.99335C4.23695 8.9856 4.26954 8.96537 4.29267 8.93617C4.31579 8.90696 4.328 8.8706 4.32718 8.83335V8.68002C4.32718 8.54741 4.37986 8.42023 4.47363 8.32646C4.5674 8.2327 4.69457 8.18002 4.82718 8.18002C4.95979 8.18002 5.08697 8.2327 5.18073 8.32646C5.2745 8.42023 5.32718 8.54741 5.32718 8.68002V8.78668C5.32718 8.83089 5.34474 8.87328 5.376 8.90453C5.40725 8.93579 5.44964 8.95335 5.49385 8.95335H5.76051C5.82935 8.95326 5.89749 8.96719 5.96077 8.9943C6.02405 9.02142 6.08113 9.06114 6.12855 9.11105C6.17596 9.16096 6.21271 9.22001 6.23654 9.28459C6.26038 9.34917 6.2708 9.41794 6.26718 9.48668V9.47335Z" fill="#FFA624"/>
<path d="M11.0007 0C10.0118 0 9.04513 0.293245 8.22288 0.842652C7.40064 1.39206 6.75978 2.17295 6.38134 3.08658C6.0029 4.00021 5.90388 5.00555 6.09681 5.97545C6.28973 6.94536 6.76594 7.83627 7.4652 8.53553C8.16446 9.2348 9.05538 9.711 10.0253 9.90393C10.9952 10.0969 12.0005 9.99784 12.9142 9.6194C13.8278 9.24096 14.6087 8.6001 15.1581 7.77785C15.7075 6.95561 16.0007 5.98891 16.0007 5C16.0007 3.67392 15.474 2.40215 14.5363 1.46447C13.5986 0.526784 12.3268 0 11.0007 0ZM11.0007 8.80667C10.8687 8.80494 10.7425 8.75171 10.6491 8.65831C10.5557 8.56491 10.5025 8.43874 10.5007 8.30667V8C10.5007 7.9558 10.4832 7.9134 10.4519 7.88215C10.4207 7.85089 10.3783 7.83333 10.3341 7.83333H9.83407C9.70146 7.83333 9.57428 7.78065 9.48051 7.68689C9.38675 7.59312 9.33407 7.46594 9.33407 7.33333C9.33407 7.20073 9.38675 7.07355 9.48051 6.97978C9.57428 6.88601 9.70146 6.83333 9.83407 6.83333H11.4141C11.5591 6.83333 11.6981 6.77574 11.8006 6.67322C11.9031 6.5707 11.9607 6.43165 11.9607 6.28667C11.9608 6.17792 11.9277 6.07175 11.8657 5.98238C11.8037 5.89302 11.7159 5.82473 11.6141 5.78667L10.0141 5.12C9.72676 5.00827 9.48001 4.81218 9.30627 4.55753C9.13254 4.30288 9.03997 4.0016 9.04073 3.69333C9.04199 3.32099 9.17753 2.96159 9.42246 2.68115C9.66739 2.4007 10.0053 2.21802 10.3741 2.16667C10.4117 2.15874 10.4452 2.13753 10.4684 2.10692C10.4917 2.07632 10.5032 2.03836 10.5007 2V1.66667C10.5007 1.53406 10.5534 1.40688 10.6472 1.31311C10.7409 1.21935 10.8681 1.16667 11.0007 1.16667C11.1333 1.16667 11.2605 1.21935 11.3543 1.31311C11.4481 1.40688 11.5007 1.53406 11.5007 1.66667V2C11.5007 2.0442 11.5183 2.0866 11.5496 2.11785C11.5808 2.14911 11.6232 2.16667 11.6674 2.16667H12.1674C12.3 2.16667 12.4272 2.21935 12.521 2.31311C12.6147 2.40688 12.6674 2.53406 12.6674 2.66667C12.6674 2.79927 12.6147 2.92645 12.521 3.02022C12.4272 3.11399 12.3 3.16667 12.1674 3.16667H10.5874C10.4424 3.16667 10.3034 3.22426 10.2008 3.32678C10.0983 3.4293 10.0407 3.56835 10.0407 3.71333C10.0407 3.82208 10.0738 3.92825 10.1358 4.01762C10.1977 4.10698 10.2855 4.17527 10.3874 4.21333L11.9874 4.88C12.2747 4.99173 12.5215 5.18782 12.6952 5.44247C12.8689 5.69712 12.9615 5.9984 12.9607 6.30667C12.9595 6.67901 12.8239 7.03841 12.579 7.31886C12.3341 7.5993 11.9962 7.78198 11.6274 7.83333C11.5885 7.83823 11.5528 7.85723 11.527 7.88672C11.5012 7.91621 11.4871 7.95415 11.4874 7.99333V8.32667C11.4808 8.45298 11.4273 8.57228 11.3372 8.6611C11.2472 8.74992 11.1271 8.80184 11.0007 8.80667Z" fill="#FFA624"/>
</g>
<path d="M19 8H30M30 8L26.5 11.5M30 8L26.5 4.5" stroke="#C8EBFF" stroke-linecap="round" stroke-linejoin="round"/>
<path d="M34.7723 8.01474L33.7184 9.40819C33.2821 7.75005 33.0886 6.17405 33.0047 5.22602C32.959 4.71123 33.2517 4.22261 33.7312 4.02911C36.2175 3.02753 38.0637 1.37973 39.0415 0.362332C39.4693 -0.0830851 40.1612 -0.119595 40.6352 0.262539L39.3871 1.91216L34.7723 8.01474Z" fill="#FDCA5B"/>
<path d="M43.2141 2.37338L42.364 3.48814L40.889 5.42193L37.2052 10.2521L35.9639 11.8793L35.1235 12.9812C34.7031 12.259 34.3629 11.4606 34.0885 10.6495L35.0621 9.36192L36.8206 7.03687L38.0419 5.42193L40.6188 2.01497L41.4148 0.96228C42.047 1.50932 42.6518 1.97664 43.2141 2.37338Z" fill="#FDCA5B"/>
<path d="M46.9083 5.34774C46.539 8.09083 45.0171 16 39.7232 16C38.3602 16 37.2698 15.4706 36.3984 14.6364L37.1773 13.6147L38.833 11.4442L40.2946 9.52748L40.3317 7.63689C40.3396 7.24137 40.639 6.91096 41.0011 6.91096C41.3631 6.91096 41.6321 7.24137 41.6041 7.63689L41.5907 7.82918L42.9994 5.9824L44.0551 4.59747L44.924 3.45776C45.4376 3.7468 45.8745 3.95916 46.2146 4.11007C46.6947 4.32365 46.9783 4.82626 46.9083 5.34774Z" fill="#FDCA5B"/>
<path d="M39.3874 1.91223L34.7726 8.01481C34.6369 7.2615 34.5566 6.58607 34.5103 6.08467C34.4635 5.57779 34.7452 5.09708 35.2113 4.89324C36.9589 4.1308 38.2897 2.95701 39.071 2.14589C39.1653 2.04793 39.2724 1.97004 39.3874 1.91223Z" fill="#43B9FB"/>
<path d="M42.3644 3.48818L40.8894 5.42197L37.2056 10.2522L35.9643 11.8793C35.5712 11.0889 35.2791 10.2126 35.0625 9.36196L36.821 7.03691L38.0423 5.42197L40.6193 2.01501C40.6576 2.04301 40.6947 2.07404 40.7306 2.10751C41.305 2.65028 41.8551 3.10665 42.3644 3.48818Z" fill="#43B9FB"/>
<path d="M45.4052 6.18254C45.0814 8.54471 43.848 14.7136 39.7778 14.7136C38.713 14.7136 37.8599 14.2871 37.1771 13.6147L38.8328 11.4442L40.2944 9.52742L40.3316 7.63684C40.3395 7.24131 40.6388 6.9109 41.0009 6.9109C41.3629 6.9109 41.6319 7.24131 41.6039 7.63684L41.5905 7.82912L42.9992 5.98234L44.0549 4.59741C44.3166 4.74467 44.549 4.86332 44.7474 4.95825C45.2098 5.17974 45.4745 5.67444 45.4052 6.18254Z" fill="#43B9FB"/>
<path d="M33.6875 4.69237C33.6875 4.69237 34.4579 4.3577 35.0743 3.96887" stroke="#FFA624" stroke-width="0.304247" stroke-linecap="round" stroke-linejoin="round"/>
<path d="M40.295 9.52747L40.2639 11.1162C40.2603 11.2982 40.1118 11.4442 39.9293 11.4442H38.8334L40.295 9.52747Z" fill="#C8EBFF"/>
<path d="M40.8913 5.422L37.2074 10.2522L36.8229 7.03694L38.0441 5.422H40.8913Z" fill="#C8EBFF"/>
<path d="M42.9982 5.9823L42.38 11.149C42.3593 11.3176 42.2169 11.4441 42.0471 11.4441H41.6918C41.497 11.4441 41.3437 11.2792 41.3577 11.0857L41.5889 7.82968H41.5895L42.9982 5.9823Z" fill="#C8EBFF"/>
<path d="M37.1768 13.6147L36.398 14.6364C35.9075 14.1678 35.4871 13.6025 35.125 12.9813L35.9653 11.8793C36.2939 12.5389 36.6925 13.1382 37.1768 13.6147Z" fill="#FFECC2"/>
<path d="M38.8334 11.4442L37.1777 13.6147C36.6933 13.1383 36.2948 12.5389 35.9662 11.8793L37.2075 10.2522L37.3146 11.1491C37.3347 11.3177 37.4771 11.4442 37.6468 11.4442H38.8334Z" fill="#76D5FF"/>
<path d="M43.0198 5.79683L42.9979 5.98181L41.5893 7.8292L41.6027 7.63691C41.6307 7.24139 41.3611 6.91098 40.9996 6.91098C40.6382 6.91098 40.3382 7.24139 40.3303 7.63691L40.2932 9.5275L38.8316 11.4443H37.645C37.4753 11.4443 37.3329 11.3177 37.3128 11.1491L37.2057 10.2522L40.8895 5.422H42.687C42.8878 5.422 43.0436 5.59724 43.0198 5.79683Z" fill="white"/>
<path d="M41.6038 7.63694L41.5904 7.82923H41.5898L40.2943 9.52753L40.3314 7.63694C40.3393 7.24142 40.6387 6.91101 41.0008 6.91101C41.3628 6.91101 41.6318 7.24142 41.6038 7.63694Z" fill="#76D5FF"/>
<path d="M43.021 5.79678C43.0447 5.5972 42.8889 5.42195 42.6881 5.42195H40.8906L42.3656 3.48816C43.0033 3.96704 43.5771 4.3291 44.0548 4.59744L42.9991 5.98176L43.021 5.79678Z" fill="#76D5FF"/>
<path d="M44.9227 3.45775L44.0538 4.59746C43.5761 4.32911 43.0023 3.96706 42.3646 3.48817L43.2147 2.37341C43.8433 2.81761 44.4195 3.17419 44.9227 3.45775Z" fill="#FFECC2"/>
<path d="M35.0635 9.36197L34.0899 10.6495C33.95 10.2364 33.8271 9.81956 33.7188 9.40822L34.7727 8.01477C34.8499 8.44437 34.9455 8.89952 35.0635 9.36197Z" fill="#FFECC2"/>
<path d="M40.6211 2.01493L38.0441 5.42188H37.0066C36.8058 5.42188 36.65 5.59712 36.6744 5.79671L36.8228 7.03682L35.0643 9.36187C34.9462 8.89942 34.8507 8.44426 34.7734 8.01467L39.3882 1.91209C39.7789 1.71372 40.2584 1.74658 40.6211 2.01493Z" fill="#76D5FF"/>
<path d="M38.0441 5.422L36.8229 7.03694L36.6744 5.79683C36.65 5.59724 36.8058 5.422 37.0066 5.422H38.0441Z" fill="white"/>
<path d="M41.4168 0.96234L40.6209 2.01503C40.2582 1.74669 39.7787 1.71383 39.3881 1.9122L40.6361 0.262573C40.6592 0.280828 40.6811 0.3003 40.703 0.32038C40.9446 0.545523 41.1825 0.759712 41.4168 0.96234Z" fill="#FFECC2"/>
<defs>
<clipPath id="clip0_516_8917">
<rect width="16" height="16" fill="white"/>
</clipPath>
</defs>
</svg>
