<svg width="49" height="16" viewBox="0 0 49 16" fill="none" xmlns="http://www.w3.org/2000/svg">
<path d="M8 16C12.4183 16 16 12.4183 16 8C16 3.58172 12.4183 0 8 0C3.58172 0 0 3.58172 0 8C0 12.4183 3.58172 16 8 16Z" fill="#26A17B"/>
<path fill-rule="evenodd" clip-rule="evenodd" d="M8.9609 8.69155V8.69055C8.9059 8.69455 8.6224 8.71155 7.9899 8.71155C7.4849 8.71155 7.1294 8.69655 7.0044 8.69055V8.69205C5.0604 8.60655 3.6094 8.26805 3.6094 7.86305C3.6094 7.45855 5.0604 7.12005 7.0044 7.03305V8.35505C7.1314 8.36405 7.4954 8.38555 7.9984 8.38555C8.6019 8.38555 8.9044 8.36055 8.9609 8.35555V7.03405C10.9009 7.12055 12.3484 7.45905 12.3484 7.86305C12.3484 8.26805 10.9009 8.60555 8.9609 8.69155ZM8.9609 6.89655V5.71355H11.6679V3.90955H4.2974V5.71355H7.0044V6.89605C4.8044 6.99705 3.1499 7.43305 3.1499 7.95505C3.1499 8.47705 4.8044 8.91255 7.0044 9.01405V12.805H8.9609V9.01305C11.1574 8.91205 12.8079 8.47655 12.8079 7.95505C12.8079 7.43355 11.1574 6.99805 8.9609 6.89655Z" fill="white"/>
<path d="M19 8H30M30 8L26.5 11.5M30 8L26.5 4.5" stroke="#C8EBFF" stroke-linecap="round" stroke-linejoin="round"/>
<g clip-path="url(#clip0_516_8858)">
<path d="M48.3321 1.41982H46.5988C46.3737 1.41841 46.1548 1.49351 45.9779 1.6328C45.8011 1.77209 45.6768 1.96732 45.6255 2.18649L44.8788 5.28649C44.8699 5.32412 44.8486 5.35769 44.8184 5.38185C44.7882 5.40601 44.7508 5.41937 44.7121 5.41982H33.7255C33.6203 5.41955 33.5165 5.44417 33.4227 5.49167C33.3288 5.53918 33.2475 5.60822 33.1855 5.69315C33.1235 5.77863 33.0827 5.8776 33.0665 5.98191C33.0503 6.08622 33.0591 6.1929 33.0921 6.29315L34.8721 11.6265C34.9157 11.7601 35.0004 11.8766 35.1142 11.9592C35.2279 12.0418 35.3649 12.0864 35.5055 12.0865H43.0655C43.0908 12.0857 43.116 12.0907 43.1391 12.1011C43.1622 12.1115 43.1826 12.127 43.1988 12.1465C43.2085 12.1685 43.2136 12.1924 43.2136 12.2165C43.2136 12.2406 43.2085 12.2644 43.1988 12.2865L43.1255 12.6198C43.1165 12.6575 43.0953 12.691 43.0651 12.7152C43.0349 12.7393 42.9975 12.7527 42.9588 12.7532H36.2788C35.9836 12.7597 35.697 12.8532 35.4547 13.022C35.2125 13.1908 35.0254 13.4272 34.917 13.7018C34.8085 13.9764 34.7835 14.2769 34.8451 14.5657C34.9067 14.8544 35.0521 15.1186 35.2632 15.325C35.4742 15.5315 35.7415 15.6711 36.0315 15.7263C36.3216 15.7815 36.6214 15.7499 36.8936 15.6355C37.1657 15.5211 37.3981 15.3288 37.5615 15.0829C37.7249 14.837 37.8121 14.5484 37.8121 14.2532C37.8124 14.2306 37.8173 14.2083 37.8265 14.1877C37.8356 14.1671 37.8489 14.1485 37.8655 14.1332C37.8799 14.1177 37.8975 14.1055 37.917 14.0974C37.9366 14.0894 37.9577 14.0856 37.9788 14.0865H41.9788C42.023 14.0865 42.0654 14.104 42.0966 14.1353C42.1279 14.1666 42.1455 14.2089 42.1455 14.2532C42.1464 14.5097 42.213 14.7617 42.3391 14.9851C42.4652 15.2085 42.6464 15.3958 42.8655 15.5292C43.0846 15.6626 43.3343 15.7375 43.5906 15.7469C43.847 15.7563 44.1014 15.6997 44.3297 15.5827C44.558 15.4657 44.7524 15.2921 44.8945 15.0785C45.0365 14.8649 45.1214 14.6185 45.141 14.3627C45.1607 14.107 45.1144 13.8504 45.0066 13.6177C44.8989 13.3849 44.7332 13.1836 44.5255 13.0332C44.4987 13.0157 44.4783 12.99 44.4675 12.9599C44.4566 12.9298 44.4559 12.897 44.4655 12.8665L46.8121 2.86649C46.8255 2.82905 46.8514 2.79736 46.8854 2.77673C46.9194 2.75609 46.9594 2.74777 46.9988 2.75315H48.3321C48.5089 2.75315 48.6785 2.68291 48.8035 2.55789C48.9286 2.43287 48.9988 2.2633 48.9988 2.08649C48.9988 1.90967 48.9286 1.74011 48.8035 1.61508C48.6785 1.49006 48.5089 1.41982 48.3321 1.41982Z" fill="#42B9FB"/>
<path d="M39.5313 4.75325H43.058C43.184 4.75475 43.308 4.72048 43.4153 4.6544C43.5227 4.58832 43.6092 4.49314 43.6646 4.37991C43.7208 4.26922 43.7449 4.14504 43.7343 4.02137C43.7237 3.89769 43.6788 3.77944 43.6046 3.67991L42.2846 1.99991L42.2246 1.92658C42.0221 1.72425 41.7476 1.6106 41.4613 1.6106C41.175 1.6106 40.9005 1.72425 40.698 1.92658L39.0513 3.61991C38.9592 3.71391 38.8969 3.83307 38.8724 3.96239C38.8479 4.0917 38.8622 4.22539 38.9135 4.34659C38.9648 4.46778 39.0509 4.57108 39.1608 4.64345C39.2708 4.71581 39.3997 4.75402 39.5313 4.75325Z" fill="#42B9FB"/>
<path d="M33.9324 4.35332C33.9844 4.47257 34.0702 4.57398 34.1792 4.64506C34.2882 4.71614 34.4156 4.75377 34.5457 4.75331H37.419C37.5294 4.75202 37.6378 4.72332 37.7344 4.6698C37.831 4.61627 37.9127 4.53959 37.9724 4.44665C38.0392 4.35007 38.0793 4.23755 38.0887 4.12049C38.098 4.00342 38.0763 3.88595 38.0257 3.77998L36.6924 0.833315C36.6284 0.695858 36.5358 0.573622 36.4208 0.474758C36.3059 0.375895 36.1712 0.302675 36.0257 0.259982C35.7486 0.19296 35.4564 0.23096 35.2057 0.366648L33.6657 1.07331C33.4041 1.19422 33.1997 1.41182 33.0952 1.68036C32.9908 1.9489 32.9945 2.24748 33.1057 2.51331L33.9324 4.35332Z" fill="#42B9FB"/>
</g>
<defs>
<clipPath id="clip0_516_8858">
<rect width="16" height="16" fill="white" transform="translate(33)"/>
</clipPath>
</defs>
</svg>
