<svg width="375" height="472" viewBox="0 0 375 472" fill="none" xmlns="http://www.w3.org/2000/svg">
<rect x="5" y="374" width="54" height="17" rx="7" fill="#D6D4FF"/>
<rect x="5" y="398" width="54" height="64" rx="10" fill="#F9FAFB"/>
<g opacity="0.24">
<rect x="83" y="324" width="54" height="17" rx="7" fill="#8B85F4"/>
<rect x="83" y="348" width="54" height="114" rx="10" fill="#F9FAFB"/>
</g>
<g opacity="0.24">
<rect x="161" y="261" width="54" height="17" rx="7" fill="#8B85F4"/>
<rect x="161" y="285" width="54" height="177" rx="10" fill="#F9FAFB"/>
</g>
<g filter="url(#filter0_f_516_9578)">
<rect x="317" y="159" width="54" height="17" rx="7" fill="#D6D4FF"/>
<rect x="317" y="183" width="54" height="279" rx="10" fill="#F9FAFB"/>
</g>
<rect x="239" y="34" width="54" height="17" rx="7" fill="#D6D4FF"/>
<rect x="239" y="58" width="54" height="404" rx="10" fill="#F9FAFB"/>
<path d="M104.54 291.997C111.092 289.06 118.784 291.989 121.721 298.54C124.659 305.092 121.73 312.784 115.179 315.722C108.627 318.659 100.935 315.73 97.9974 309.179C95.0598 302.627 97.9892 294.935 104.54 291.997Z" fill="#AB9FF2"/>
<path d="M104.54 291.997C111.092 289.06 118.784 291.989 121.721 298.54C124.659 305.092 121.73 312.784 115.179 315.722C108.627 318.659 100.935 315.73 97.9974 309.179C95.0598 302.627 97.9892 294.935 104.54 291.997Z" stroke="white" stroke-width="2"/>
<path d="M106.742 311.833C108.605 310.997 109.297 308.789 109.572 307.165C109.594 307.487 109.662 307.789 109.781 308.054C110.108 308.783 110.77 309.111 111.617 308.731C112.78 308.209 113.576 306.658 113.738 305.297C113.763 305.472 113.804 305.626 113.864 305.758C114.092 306.267 114.529 306.456 115.128 306.187C117.013 305.342 117.448 301.23 116.169 298.378C115.173 296.156 113.143 294.715 110.253 296.012C105.172 298.29 102.412 306.804 104.167 310.717C104.856 312.254 105.862 312.228 106.742 311.833ZM110.267 300.732C110.02 300.179 110.162 299.65 110.625 299.443C111.077 299.24 111.567 299.485 111.814 300.038C112.062 300.591 111.925 301.131 111.473 301.333C111.01 301.541 110.515 301.285 110.267 300.732ZM112.684 299.648C112.436 299.096 112.579 298.567 113.042 298.359C113.493 298.157 113.983 298.402 114.231 298.955C114.479 299.507 114.341 300.047 113.889 300.25C113.426 300.457 112.932 300.201 112.684 299.648Z" fill="#FFFDF8"/>
<rect x="176" y="225" width="24" height="23.4109" rx="11.7054" fill="#141414"/>
<path d="M188 225C181.373 225 176 230.241 176 236.705C176 243.17 181.373 248.411 188 248.411C194.627 248.411 200 243.17 200 236.705C200 230.241 194.627 225 188 225ZM189.076 244.405C189.072 244.405 189.069 244.405 189.065 244.405C189.044 244.405 189.025 244.398 189.009 244.385C188.991 244.37 188.981 244.346 188.981 244.323V241.072C188.981 241.033 189.008 241 189.046 240.992C190.683 240.616 191.988 239.342 192.375 237.743C192.383 237.706 192.417 237.68 192.456 237.68H195.788C195.812 237.68 195.836 237.69 195.851 237.708C195.867 237.725 195.875 237.749 195.871 237.773C195.402 241.22 192.607 243.946 189.076 244.405ZM195.792 235.805H195.788H192.455C192.415 235.805 192.382 235.779 192.373 235.742C191.894 233.754 190.102 232.367 188.017 232.367C185.542 232.367 183.53 234.33 183.53 236.744C183.53 238.778 184.952 240.526 186.99 240.993C187.028 241.002 187.054 241.034 187.054 241.073V244.324C187.054 244.348 187.044 244.37 187.026 244.386C187.011 244.4 186.991 244.407 186.97 244.407C186.966 244.407 186.963 244.407 186.959 244.407C183.039 243.895 180.084 240.601 180.084 236.745C180.084 232.478 183.644 229.006 188.017 229.006C191.963 229.006 195.333 231.877 195.868 235.688C195.874 235.699 195.877 235.712 195.877 235.724C195.877 235.768 195.839 235.805 195.792 235.805Z" fill="white"/>
<g clip-path="url(#clip0_516_9578)">
<mask id="mask0_516_9578" style="mask-type:luminance" maskUnits="userSpaceOnUse" x="23" y="344" width="69" height="21">
<path d="M91.4483 344.166H23.9957V364.04H91.4483V344.166Z" fill="white"/>
</mask>
<g mask="url(#mask0_516_9578)">
<path d="M31.9374 351.812V348.448H30.1674C30.2099 348.417 30.2538 348.387 30.2977 348.359C30.9098 347.962 31.6221 347.752 32.3569 347.752C34.4443 347.752 36.1431 349.448 36.1431 351.533V351.772H39.7064V351.533C39.7064 350.543 39.5116 349.582 39.1278 348.676C38.7576 347.801 38.2277 347.017 37.5531 346.344C36.8786 345.67 36.093 345.141 35.2176 344.772C34.3113 344.388 33.3482 344.194 32.3569 344.194C30.9311 344.194 29.547 344.602 28.3556 345.376C28.0046 345.604 27.6735 345.861 27.3664 346.145V344.166H23.9957V348.363L28.3275 351.813H31.9374V351.812Z" fill="#171717"/>
<path d="M31.9373 352.087V355.453H33.6854C33.0486 355.907 32.2876 356.152 31.4897 356.152C29.4023 356.152 27.7036 354.456 27.7036 352.372V352.132H24.1403V352.372C24.1403 353.362 24.3349 354.322 24.7188 355.229C25.089 356.103 25.6189 356.887 26.2928 357.561C26.9673 358.234 27.7529 358.763 28.6283 359.133C29.5353 359.516 30.4984 359.711 31.4897 359.711C33.357 359.711 35.1551 358.996 36.509 357.733V359.717H39.8797V355.537L35.5479 352.088H31.938L31.9373 352.087Z" fill="#171717"/>
</g>
</g>
<path d="M332.393 135.713C333.833 129.244 340.244 125.167 346.713 126.607C353.183 128.047 357.26 134.458 355.82 140.927C354.38 147.396 347.969 151.473 341.5 150.034C335.03 148.594 330.953 142.183 332.393 135.713Z" fill="white"/>
<path d="M340.681 136.725L343.789 133.618L346.899 136.728L348.707 134.919L343.789 130L338.872 134.918L340.681 136.725Z" fill="#F3BA2F"/>
<path d="M335.785 138.003L337.594 136.195L339.402 138.003L337.594 139.811L335.785 138.003Z" fill="#F3BA2F"/>
<path d="M340.681 139.28L343.789 142.389L346.899 139.279L348.708 141.085L348.707 141.087L343.789 146.006L338.872 141.089L338.869 141.087L340.681 139.28Z" fill="#F3BA2F"/>
<path d="M348.174 138.004L349.982 136.195L351.79 138.004L349.982 139.812L348.174 138.004Z" fill="#F3BA2F"/>
<path d="M345.624 138.002L343.789 136.167L342.433 137.523L342.276 137.679L341.955 138L341.952 138.002L341.955 138.006L343.789 139.839L345.624 138.003L345.625 138.002H345.624Z" fill="#F3BA2F"/>
<path d="M36.95 310.016C37.2466 308.945 38.5904 308.598 39.3689 309.39L50.436 320.649C51.2145 321.441 50.8437 322.778 49.7687 323.056L34.4846 327.011C33.4095 327.29 32.4365 326.3 32.7331 325.23L36.95 310.016Z" fill="#42B9FB"/>
<rect x="44.3984" y="274" width="166" height="44" rx="22" fill="#42B9FB"/>
<path d="M61.9872 302V290.364H65.919C66.8319 290.364 67.5781 290.528 68.1577 290.858C68.741 291.184 69.1728 291.625 69.4531 292.182C69.7334 292.739 69.8736 293.36 69.8736 294.045C69.8736 294.731 69.7334 295.354 69.4531 295.915C69.1766 296.475 68.7486 296.922 68.169 297.256C67.5895 297.585 66.8471 297.75 65.9418 297.75H63.1236V296.5H65.8963C66.5213 296.5 67.0232 296.392 67.402 296.176C67.7808 295.96 68.0554 295.669 68.2259 295.301C68.4001 294.93 68.4872 294.511 68.4872 294.045C68.4872 293.58 68.4001 293.163 68.2259 292.795C68.0554 292.428 67.7789 292.14 67.3963 291.932C67.0137 291.72 66.5062 291.614 65.8736 291.614H63.3963V302H61.9872ZM74.5298 302.205C73.9768 302.205 73.4749 302.1 73.0241 301.892C72.5734 301.68 72.2154 301.375 71.9503 300.977C71.6851 300.576 71.5526 300.091 71.5526 299.523C71.5526 299.023 71.651 298.617 71.848 298.307C72.045 297.992 72.3082 297.746 72.6378 297.568C72.9673 297.39 73.331 297.258 73.7287 297.17C74.1302 297.08 74.5336 297.008 74.9389 296.955C75.4692 296.886 75.8991 296.835 76.2287 296.801C76.562 296.763 76.8045 296.701 76.956 296.614C77.1113 296.527 77.1889 296.375 77.1889 296.159V296.114C77.1889 295.553 77.0355 295.117 76.7287 294.807C76.4257 294.496 75.9654 294.341 75.348 294.341C74.7079 294.341 74.206 294.481 73.8423 294.761C73.4787 295.042 73.223 295.341 73.0753 295.659L71.8026 295.205C72.0298 294.674 72.3329 294.261 72.7116 293.966C73.0942 293.667 73.5109 293.458 73.9616 293.341C74.4162 293.22 74.8632 293.159 75.3026 293.159C75.5829 293.159 75.9048 293.193 76.2685 293.261C76.6359 293.326 76.9901 293.46 77.331 293.665C77.6757 293.869 77.9616 294.178 78.1889 294.591C78.4162 295.004 78.5298 295.557 78.5298 296.25V302H77.1889V300.818H77.1207C77.0298 301.008 76.8783 301.21 76.6662 301.426C76.4541 301.642 76.1719 301.826 75.8196 301.977C75.4673 302.129 75.0374 302.205 74.5298 302.205ZM74.7344 301C75.2647 301 75.7116 300.896 76.0753 300.688C76.4427 300.479 76.7192 300.21 76.9048 299.881C77.0942 299.551 77.1889 299.205 77.1889 298.841V297.614C77.1321 297.682 77.0071 297.744 76.8139 297.801C76.6245 297.854 76.4048 297.902 76.1548 297.943C75.9086 297.981 75.6681 298.015 75.4332 298.045C75.2022 298.072 75.0147 298.095 74.8707 298.114C74.5223 298.159 74.1965 298.233 73.8935 298.335C73.5942 298.434 73.3518 298.583 73.1662 298.784C72.9844 298.981 72.8935 299.25 72.8935 299.591C72.8935 300.057 73.0658 300.409 73.4105 300.648C73.759 300.883 74.2003 301 74.7344 301ZM81.5284 305.273C81.3011 305.273 81.0985 305.254 80.9205 305.216C80.7424 305.182 80.6193 305.148 80.5511 305.114L80.892 303.932C81.2178 304.015 81.5057 304.045 81.7557 304.023C82.0057 304 82.2273 303.888 82.4205 303.688C82.6174 303.491 82.7973 303.17 82.9602 302.727L83.2102 302.045L79.983 293.273H81.4375L83.8466 300.227H83.9375L86.3466 293.273H87.8011L84.0966 303.273C83.9299 303.723 83.7235 304.097 83.4773 304.392C83.2311 304.691 82.9451 304.913 82.6193 305.057C82.2973 305.201 81.9337 305.273 81.5284 305.273ZM89.571 302V293.273H90.8665V294.636H90.9801C91.1619 294.17 91.4555 293.809 91.8608 293.551C92.2661 293.29 92.7528 293.159 93.321 293.159C93.8968 293.159 94.3759 293.29 94.7585 293.551C95.1449 293.809 95.446 294.17 95.6619 294.636H95.7528C95.9763 294.186 96.3116 293.828 96.7585 293.562C97.2055 293.294 97.7415 293.159 98.3665 293.159C99.1468 293.159 99.785 293.403 100.281 293.892C100.777 294.377 101.026 295.133 101.026 296.159V302H99.6847V296.159C99.6847 295.515 99.5085 295.055 99.1562 294.778C98.804 294.502 98.3892 294.364 97.9119 294.364C97.2983 294.364 96.8229 294.549 96.4858 294.92C96.1487 295.288 95.9801 295.754 95.9801 296.318V302H94.6165V296.023C94.6165 295.527 94.4555 295.127 94.1335 294.824C93.8116 294.517 93.3968 294.364 92.8892 294.364C92.5407 294.364 92.215 294.456 91.9119 294.642C91.6127 294.828 91.3703 295.085 91.1847 295.415C91.0028 295.741 90.9119 296.117 90.9119 296.545V302H89.571ZM107.136 302.182C106.295 302.182 105.57 301.996 104.96 301.625C104.354 301.25 103.886 300.727 103.557 300.057C103.231 299.383 103.068 298.598 103.068 297.705C103.068 296.811 103.231 296.023 103.557 295.341C103.886 294.655 104.345 294.121 104.932 293.739C105.523 293.352 106.212 293.159 107 293.159C107.455 293.159 107.903 293.235 108.347 293.386C108.79 293.538 109.193 293.784 109.557 294.125C109.92 294.462 110.21 294.909 110.426 295.466C110.642 296.023 110.75 296.708 110.75 297.523V298.091H104.023V296.932H109.386C109.386 296.439 109.288 296 109.091 295.614C108.898 295.227 108.621 294.922 108.261 294.699C107.905 294.475 107.485 294.364 107 294.364C106.466 294.364 106.004 294.496 105.614 294.761C105.227 295.023 104.93 295.364 104.722 295.784C104.513 296.205 104.409 296.655 104.409 297.136V297.909C104.409 298.568 104.523 299.127 104.75 299.585C104.981 300.04 105.301 300.386 105.71 300.625C106.119 300.86 106.595 300.977 107.136 300.977C107.489 300.977 107.807 300.928 108.091 300.83C108.379 300.727 108.627 300.576 108.835 300.375C109.044 300.17 109.205 299.917 109.318 299.614L110.614 299.977C110.477 300.417 110.248 300.803 109.926 301.136C109.604 301.466 109.206 301.723 108.733 301.909C108.259 302.091 107.727 302.182 107.136 302.182ZM114.131 296.75V302H112.79V293.273H114.085V294.636H114.199C114.403 294.193 114.714 293.837 115.131 293.568C115.547 293.295 116.085 293.159 116.744 293.159C117.335 293.159 117.852 293.28 118.295 293.523C118.739 293.761 119.083 294.125 119.33 294.614C119.576 295.098 119.699 295.712 119.699 296.455V302H118.358V296.545C118.358 295.86 118.18 295.326 117.824 294.943C117.468 294.557 116.979 294.364 116.358 294.364C115.93 294.364 115.547 294.456 115.21 294.642C114.877 294.828 114.614 295.098 114.42 295.455C114.227 295.811 114.131 296.242 114.131 296.75ZM125.945 293.273V294.409H121.422V293.273H125.945ZM122.74 291.182H124.081V299.5C124.081 299.879 124.136 300.163 124.246 300.352C124.359 300.538 124.503 300.663 124.678 300.727C124.856 300.788 125.043 300.818 125.24 300.818C125.388 300.818 125.509 300.811 125.604 300.795C125.698 300.777 125.774 300.761 125.831 300.75L126.104 301.955C126.013 301.989 125.886 302.023 125.723 302.057C125.56 302.095 125.354 302.114 125.104 302.114C124.725 302.114 124.354 302.032 123.99 301.869C123.63 301.706 123.331 301.458 123.092 301.125C122.857 300.792 122.74 300.371 122.74 299.864V291.182ZM132.643 302V290.364H136.575C137.488 290.364 138.234 290.528 138.814 290.858C139.397 291.184 139.829 291.625 140.109 292.182C140.39 292.739 140.53 293.36 140.53 294.045C140.53 294.731 140.39 295.354 140.109 295.915C139.833 296.475 139.405 296.922 138.825 297.256C138.246 297.585 137.503 297.75 136.598 297.75H133.78V296.5H136.553C137.178 296.5 137.679 296.392 138.058 296.176C138.437 295.96 138.712 295.669 138.882 295.301C139.056 294.93 139.143 294.511 139.143 294.045C139.143 293.58 139.056 293.163 138.882 292.795C138.712 292.428 138.435 292.14 138.053 291.932C137.67 291.72 137.162 291.614 136.53 291.614H134.053V302H132.643ZM142.618 302V293.273H143.913V294.591H144.004C144.163 294.159 144.451 293.809 144.868 293.54C145.285 293.271 145.754 293.136 146.277 293.136C146.375 293.136 146.499 293.138 146.646 293.142C146.794 293.146 146.906 293.152 146.982 293.159V294.523C146.936 294.511 146.832 294.494 146.669 294.472C146.51 294.445 146.341 294.432 146.163 294.432C145.739 294.432 145.36 294.521 145.027 294.699C144.697 294.873 144.436 295.116 144.243 295.426C144.054 295.733 143.959 296.083 143.959 296.477V302H142.618ZM151.851 302.182C151.063 302.182 150.372 301.994 149.777 301.619C149.186 301.244 148.724 300.72 148.391 300.045C148.061 299.371 147.896 298.583 147.896 297.682C147.896 296.773 148.061 295.979 148.391 295.301C148.724 294.623 149.186 294.097 149.777 293.722C150.372 293.347 151.063 293.159 151.851 293.159C152.639 293.159 153.328 293.347 153.919 293.722C154.514 294.097 154.976 294.623 155.305 295.301C155.639 295.979 155.805 296.773 155.805 297.682C155.805 298.583 155.639 299.371 155.305 300.045C154.976 300.72 154.514 301.244 153.919 301.619C153.328 301.994 152.639 302.182 151.851 302.182ZM151.851 300.977C152.449 300.977 152.942 300.824 153.328 300.517C153.714 300.21 154 299.807 154.186 299.307C154.372 298.807 154.464 298.265 154.464 297.682C154.464 297.098 154.372 296.555 154.186 296.051C154 295.547 153.714 295.14 153.328 294.83C152.942 294.519 152.449 294.364 151.851 294.364C151.252 294.364 150.76 294.519 150.374 294.83C149.987 295.14 149.701 295.547 149.516 296.051C149.33 296.555 149.237 297.098 149.237 297.682C149.237 298.265 149.33 298.807 149.516 299.307C149.701 299.807 149.987 300.21 150.374 300.517C150.76 300.824 151.252 300.977 151.851 300.977ZM164.676 293.273L161.449 302H160.085L156.858 293.273H158.312L160.722 300.227H160.812L163.222 293.273H164.676ZM166.446 302V293.273H167.787V302H166.446ZM167.128 291.818C166.866 291.818 166.641 291.729 166.452 291.551C166.266 291.373 166.173 291.159 166.173 290.909C166.173 290.659 166.266 290.445 166.452 290.267C166.641 290.089 166.866 290 167.128 290C167.389 290 167.613 290.089 167.798 290.267C167.988 290.445 168.082 290.659 168.082 290.909C168.082 291.159 167.988 291.373 167.798 291.551C167.613 291.729 167.389 291.818 167.128 291.818ZM173.538 302.182C172.811 302.182 172.169 301.998 171.612 301.631C171.055 301.259 170.62 300.737 170.305 300.062C169.991 299.384 169.834 298.583 169.834 297.659C169.834 296.742 169.991 295.947 170.305 295.273C170.62 294.598 171.057 294.078 171.618 293.71C172.179 293.343 172.826 293.159 173.561 293.159C174.129 293.159 174.578 293.254 174.908 293.443C175.241 293.629 175.495 293.841 175.669 294.08C175.847 294.314 175.985 294.508 176.084 294.659H176.197V290.364H177.538V302H176.243V300.659H176.084C175.985 300.818 175.845 301.019 175.663 301.261C175.482 301.5 175.222 301.714 174.885 301.903C174.548 302.089 174.099 302.182 173.538 302.182ZM173.72 300.977C174.258 300.977 174.713 300.837 175.084 300.557C175.455 300.273 175.737 299.881 175.93 299.381C176.124 298.877 176.22 298.295 176.22 297.636C176.22 296.985 176.125 296.415 175.936 295.926C175.747 295.434 175.466 295.051 175.095 294.778C174.724 294.502 174.266 294.364 173.72 294.364C173.152 294.364 172.679 294.509 172.3 294.801C171.925 295.089 171.643 295.481 171.453 295.977C171.268 296.47 171.175 297.023 171.175 297.636C171.175 298.258 171.269 298.822 171.459 299.33C171.652 299.833 171.936 300.235 172.311 300.534C172.69 300.83 173.16 300.977 173.72 300.977ZM183.839 302.182C182.999 302.182 182.273 301.996 181.663 301.625C181.057 301.25 180.589 300.727 180.26 300.057C179.934 299.383 179.771 298.598 179.771 297.705C179.771 296.811 179.934 296.023 180.26 295.341C180.589 294.655 181.048 294.121 181.635 293.739C182.226 293.352 182.915 293.159 183.703 293.159C184.158 293.159 184.607 293.235 185.05 293.386C185.493 293.538 185.896 293.784 186.26 294.125C186.624 294.462 186.913 294.909 187.129 295.466C187.345 296.023 187.453 296.708 187.453 297.523V298.091H180.726V296.932H186.089C186.089 296.439 185.991 296 185.794 295.614C185.601 295.227 185.324 294.922 184.964 294.699C184.608 294.475 184.188 294.364 183.703 294.364C183.169 294.364 182.707 294.496 182.317 294.761C181.93 295.023 181.633 295.364 181.425 295.784C181.216 296.205 181.112 296.655 181.112 297.136V297.909C181.112 298.568 181.226 299.127 181.453 299.585C181.684 300.04 182.004 300.386 182.413 300.625C182.822 300.86 183.298 300.977 183.839 300.977C184.192 300.977 184.51 300.928 184.794 300.83C185.082 300.727 185.33 300.576 185.538 300.375C185.747 300.17 185.908 299.917 186.021 299.614L187.317 299.977C187.18 300.417 186.951 300.803 186.629 301.136C186.307 301.466 185.91 301.723 185.436 301.909C184.963 302.091 184.43 302.182 183.839 302.182ZM189.493 302V293.273H190.788V294.591H190.879C191.038 294.159 191.326 293.809 191.743 293.54C192.16 293.271 192.629 293.136 193.152 293.136C193.25 293.136 193.374 293.138 193.521 293.142C193.669 293.146 193.781 293.152 193.857 293.159V294.523C193.811 294.511 193.707 294.494 193.544 294.472C193.385 294.445 193.216 294.432 193.038 294.432C192.614 294.432 192.235 294.521 191.902 294.699C191.572 294.873 191.311 295.116 191.118 295.426C190.929 295.733 190.834 296.083 190.834 296.477V302H189.493Z" fill="white"/>
<path d="M278.347 0V24H272.278V9.10412C272.278 7.42908 270.92 6.06953 269.243 6.06953C267.567 6.06953 266.208 7.4282 266.208 9.10412V24H254V0H278.347Z" fill="#43B9FB"/>
<path d="M180 60H196" stroke="#8B85F4"/>
<path d="M188 64L186.557 66.5L189.443 66.5L188 64ZM187.75 119C187.75 119.138 187.862 119.25 188 119.25C188.138 119.25 188.25 119.138 188.25 119L187.75 119ZM187.75 65.9643C187.75 66.1024 187.862 66.2143 188 66.2143C188.138 66.2143 188.25 66.1024 188.25 65.9643L187.75 65.9643ZM188.25 69.8929C188.25 69.7548 188.138 69.6429 188 69.6429C187.862 69.6429 187.75 69.7548 187.75 69.8929L188.25 69.8929ZM187.75 73.8214C187.75 73.9595 187.862 74.0714 188 74.0714C188.138 74.0714 188.25 73.9595 188.25 73.8214L187.75 73.8214ZM188.25 77.75C188.25 77.6119 188.138 77.5 188 77.5C187.862 77.5 187.75 77.6119 187.75 77.75L188.25 77.75ZM187.75 81.6786C187.75 81.8166 187.862 81.9286 188 81.9286C188.138 81.9286 188.25 81.8166 188.25 81.6786L187.75 81.6786ZM188.25 85.6071C188.25 85.4691 188.138 85.3571 188 85.3571C187.862 85.3571 187.75 85.4691 187.75 85.6071L188.25 85.6071ZM187.75 89.5357C187.75 89.6738 187.862 89.7857 188 89.7857C188.138 89.7857 188.25 89.6738 188.25 89.5357L187.75 89.5357ZM188.25 93.4643C188.25 93.3262 188.138 93.2143 188 93.2143C187.862 93.2143 187.75 93.3262 187.75 93.4643L188.25 93.4643ZM187.75 97.3929C187.75 97.5309 187.862 97.6429 188 97.6429C188.138 97.6429 188.25 97.5309 188.25 97.3929L187.75 97.3929ZM188.25 101.321C188.25 101.183 188.138 101.071 188 101.071C187.862 101.071 187.75 101.183 187.75 101.321L188.25 101.321ZM187.75 105.25C187.75 105.388 187.862 105.5 188 105.5C188.138 105.5 188.25 105.388 188.25 105.25L187.75 105.25ZM188.25 109.179C188.25 109.04 188.138 108.929 188 108.929C187.862 108.929 187.75 109.04 187.75 109.179L188.25 109.179ZM187.75 113.107C187.75 113.245 187.862 113.357 188 113.357C188.138 113.357 188.25 113.245 188.25 113.107L187.75 113.107ZM188.25 117.036C188.25 116.898 188.138 116.786 188 116.786C187.862 116.786 187.75 116.898 187.75 117.036L188.25 117.036ZM188 69.8929L187.75 69.8929L187.75 73.8214L188 73.8214L188.25 73.8214L188.25 69.8929L188 69.8929ZM188 77.75L187.75 77.75L187.75 81.6786L188 81.6786L188.25 81.6786L188.25 77.75L188 77.75ZM188 85.6071L187.75 85.6071L187.75 89.5357L188 89.5357L188.25 89.5357L188.25 85.6071L188 85.6071ZM188 93.4643L187.75 93.4643L187.75 97.3929L188 97.3929L188.25 97.3929L188.25 93.4643L188 93.4643ZM188 101.321L187.75 101.321L187.75 105.25L188 105.25L188.25 105.25L188.25 101.321L188 101.321ZM188 109.179L187.75 109.179L187.75 113.107L188 113.107L188.25 113.107L188.25 109.179L188 109.179ZM188 117.036L187.75 117.036L187.75 119L188 119L188.25 119L188.25 117.036L188 117.036Z" fill="#E3E3E9"/>
<path d="M151.56 140.341C151.549 139.712 151.651 139.206 151.867 138.824C152.083 138.441 152.363 138.163 152.708 137.989C153.057 137.814 153.424 137.727 153.81 137.727C154.197 137.727 154.549 137.812 154.867 137.983C155.189 138.15 155.557 138.413 155.969 138.773C156.25 139.015 156.473 139.186 156.64 139.284C156.81 139.383 156.996 139.432 157.197 139.432C157.522 139.432 157.78 139.314 157.969 139.08C158.159 138.841 158.25 138.496 158.242 138.045H159.469C159.481 138.674 159.379 139.18 159.163 139.562C158.951 139.945 158.67 140.223 158.322 140.398C157.973 140.572 157.606 140.659 157.219 140.659C156.833 140.659 156.481 140.576 156.163 140.409C155.844 140.239 155.477 139.973 155.06 139.614C154.784 139.371 154.56 139.201 154.39 139.102C154.219 139.004 154.034 138.955 153.833 138.955C153.526 138.955 153.272 139.062 153.072 139.278C152.875 139.491 152.78 139.845 152.788 140.341H151.56ZM165.425 142.955V135.455H166.698V142.955H165.425ZM162.312 139.841V138.568H169.812V139.841H162.312ZM176.631 133.364V145H175.222V134.841H175.154L172.313 136.727V135.295L175.222 133.364H176.631ZM183.773 145.159C182.917 145.159 182.188 144.926 181.586 144.46C180.984 143.991 180.523 143.311 180.205 142.42C179.887 141.527 179.728 140.447 179.728 139.182C179.728 137.924 179.887 136.85 180.205 135.96C180.527 135.066 180.989 134.384 181.592 133.915C182.198 133.441 182.925 133.205 183.773 133.205C184.622 133.205 185.347 133.441 185.95 133.915C186.556 134.384 187.018 135.066 187.336 135.96C187.658 136.85 187.819 137.924 187.819 139.182C187.819 140.447 187.66 141.527 187.342 142.42C187.023 143.311 186.563 143.991 185.961 144.46C185.359 144.926 184.629 145.159 183.773 145.159ZM183.773 143.909C184.622 143.909 185.281 143.5 185.751 142.682C186.22 141.864 186.455 140.697 186.455 139.182C186.455 138.174 186.347 137.316 186.131 136.608C185.919 135.9 185.612 135.36 185.211 134.989C184.813 134.617 184.334 134.432 183.773 134.432C182.933 134.432 182.275 134.847 181.802 135.676C181.328 136.502 181.092 137.67 181.092 139.182C181.092 140.189 181.198 141.045 181.41 141.75C181.622 142.455 181.927 142.991 182.325 143.358C182.726 143.725 183.209 143.909 183.773 143.909ZM194.683 145V133.364H196.092V139.136H196.228L201.455 133.364H203.296L198.41 138.614L203.296 145H201.592L197.546 139.591L196.092 141.227V145H194.683ZM211.484 136.273C211.415 135.697 211.139 135.25 210.654 134.932C210.169 134.614 209.575 134.455 208.87 134.455C208.355 134.455 207.904 134.538 207.518 134.705C207.135 134.871 206.836 135.1 206.62 135.392C206.408 135.684 206.302 136.015 206.302 136.386C206.302 136.697 206.376 136.964 206.523 137.188C206.675 137.407 206.868 137.591 207.103 137.739C207.338 137.883 207.584 138.002 207.842 138.097C208.099 138.187 208.336 138.261 208.552 138.318L209.734 138.636C210.037 138.716 210.374 138.826 210.745 138.966C211.12 139.106 211.478 139.297 211.819 139.54C212.164 139.778 212.448 140.085 212.671 140.46C212.895 140.835 213.006 141.295 213.006 141.841C213.006 142.47 212.842 143.038 212.512 143.545C212.186 144.053 211.709 144.456 211.08 144.756C210.455 145.055 209.696 145.205 208.802 145.205C207.969 145.205 207.247 145.07 206.637 144.801C206.031 144.532 205.554 144.157 205.205 143.676C204.861 143.195 204.665 142.636 204.62 142H206.075C206.112 142.439 206.26 142.803 206.518 143.091C206.779 143.375 207.109 143.587 207.506 143.727C207.908 143.864 208.34 143.932 208.802 143.932C209.34 143.932 209.823 143.845 210.251 143.67C210.679 143.492 211.018 143.246 211.268 142.932C211.518 142.614 211.643 142.242 211.643 141.818C211.643 141.432 211.535 141.117 211.319 140.875C211.103 140.633 210.819 140.436 210.467 140.284C210.114 140.133 209.734 140 209.325 139.886L207.893 139.477C206.984 139.216 206.264 138.843 205.734 138.358C205.203 137.873 204.938 137.239 204.938 136.455C204.938 135.803 205.114 135.235 205.467 134.75C205.823 134.261 206.3 133.883 206.898 133.614C207.501 133.341 208.173 133.205 208.915 133.205C209.665 133.205 210.332 133.339 210.915 133.608C211.499 133.873 211.961 134.237 212.302 134.699C212.647 135.161 212.828 135.686 212.847 136.273H211.484ZM215.323 145V133.364H216.732V138.545H222.937V133.364H224.346V145H222.937V139.795H216.732V145H215.323Z" fill="#121217"/>
<path d="M188.25 159C188.25 158.862 188.138 158.75 188 158.75C187.862 158.75 187.75 158.862 187.75 159L188.25 159ZM188 214L189.443 211.5L186.557 211.5L188 214ZM187.75 160.964C187.75 161.102 187.862 161.214 188 161.214C188.138 161.214 188.25 161.102 188.25 160.964L187.75 160.964ZM188.25 164.893C188.25 164.755 188.138 164.643 188 164.643C187.862 164.643 187.75 164.755 187.75 164.893L188.25 164.893ZM187.75 168.821C187.75 168.959 187.862 169.071 188 169.071C188.138 169.071 188.25 168.959 188.25 168.821L187.75 168.821ZM188.25 172.75C188.25 172.612 188.138 172.5 188 172.5C187.862 172.5 187.75 172.612 187.75 172.75L188.25 172.75ZM187.75 176.679C187.75 176.817 187.862 176.929 188 176.929C188.138 176.929 188.25 176.817 188.25 176.679L187.75 176.679ZM188.25 180.607C188.25 180.469 188.138 180.357 188 180.357C187.862 180.357 187.75 180.469 187.75 180.607L188.25 180.607ZM187.75 184.536C187.75 184.674 187.862 184.786 188 184.786C188.138 184.786 188.25 184.674 188.25 184.536L187.75 184.536ZM188.25 188.464C188.25 188.326 188.138 188.214 188 188.214C187.862 188.214 187.75 188.326 187.75 188.464L188.25 188.464ZM187.75 192.393C187.75 192.531 187.862 192.643 188 192.643C188.138 192.643 188.25 192.531 188.25 192.393L187.75 192.393ZM188.25 196.321C188.25 196.183 188.138 196.071 188 196.071C187.862 196.071 187.75 196.183 187.75 196.321L188.25 196.321ZM187.75 200.25C187.75 200.388 187.862 200.5 188 200.5C188.138 200.5 188.25 200.388 188.25 200.25L187.75 200.25ZM188.25 204.179C188.25 204.04 188.138 203.929 188 203.929C187.862 203.929 187.75 204.04 187.75 204.179L188.25 204.179ZM187.75 208.107C187.75 208.245 187.862 208.357 188 208.357C188.138 208.357 188.25 208.245 188.25 208.107L187.75 208.107ZM188.25 212.036C188.25 211.898 188.138 211.786 188 211.786C187.862 211.786 187.75 211.898 187.75 212.036L188.25 212.036ZM188 159L187.75 159L187.75 160.964L188 160.964L188.25 160.964L188.25 159L188 159ZM188 164.893L187.75 164.893L187.75 168.821L188 168.821L188.25 168.821L188.25 164.893L188 164.893ZM188 172.75L187.75 172.75L187.75 176.679L188 176.679L188.25 176.679L188.25 172.75L188 172.75ZM188 180.607L187.75 180.607L187.75 184.536L188 184.536L188.25 184.536L188.25 180.607L188 180.607ZM188 188.464L187.75 188.464L187.75 192.393L188 192.393L188.25 192.393L188.25 188.464L188 188.464ZM188 196.321L187.75 196.321L187.75 200.25L188 200.25L188.25 200.25L188.25 196.321L188 196.321ZM188 204.179L187.75 204.179L187.75 208.107L188 208.107L188.25 208.107L188.25 204.179L188 204.179Z" fill="#E3E3E9"/>
<path d="M180 218H196" stroke="#8B85F4"/>
<defs>
<filter id="filter0_f_516_9578" x="313" y="155" width="62" height="311" filterUnits="userSpaceOnUse" color-interpolation-filters="sRGB">
<feFlood flood-opacity="0" result="BackgroundImageFix"/>
<feBlend mode="normal" in="SourceGraphic" in2="BackgroundImageFix" result="shape"/>
<feGaussianBlur stdDeviation="2" result="effect1_foregroundBlur_516_9578"/>
</filter>
<clipPath id="clip0_516_9578">
<rect width="15.9565" height="16.6818" fill="white" transform="translate(24 344.019)"/>
</clipPath>
</defs>
</svg>
