<svg width="51" height="16" viewBox="0 0 51 16" fill="none" xmlns="http://www.w3.org/2000/svg">
<path d="M8.00003 16C9.58228 16 11.129 15.5308 12.4446 14.6518C13.7602 13.7727 14.7856 12.5233 15.3911 11.0615C15.9966 9.59966 16.155 7.99113 15.8463 6.43928C15.5376 4.88743 14.7757 3.46197 13.6569 2.34315C12.5381 1.22433 11.1126 0.462403 9.56075 0.153721C8.0089 -0.15496 6.40037 0.00346624 4.93856 0.608967C3.47675 1.21447 2.22732 2.23985 1.34827 3.55544C0.469216 4.87104 2.42203e-05 6.41775 2.42203e-05 8.00001C-0.0025658 9.05131 0.202592 10.0928 0.603713 11.0645C1.00483 12.0363 1.59401 12.9193 2.33739 13.6626C3.08078 14.406 3.96372 14.9952 4.9355 15.3963C5.90727 15.7974 6.94872 16.0026 8.00003 16Z" fill="#2775CA"/>
<path d="M10.2 9.26687C10.2 8.10324 9.50034 7.6996 8.10034 7.53306C7.09961 7.39997 6.90034 7.13306 6.90034 6.66687C6.90034 6.20069 7.23343 5.8996 7.89962 5.8996C8.50034 5.8996 8.83343 6.0996 8.99998 6.59996C9.01786 6.64817 9.05013 6.68972 9.0924 6.71899C9.13468 6.74826 9.18492 6.76383 9.23634 6.7636H9.76943C9.80031 6.7644 9.83102 6.75891 9.85971 6.74746C9.8884 6.73601 9.91445 6.71884 9.93629 6.697C9.95813 6.67516 9.9753 6.64911 9.98675 6.62042C9.9982 6.59174 10.0037 6.56102 10.0029 6.53015V6.49742C9.93848 6.13614 9.75655 5.80624 9.48537 5.55899C9.21419 5.31175 8.86893 5.16099 8.50325 5.13015V4.33015C8.50325 4.19706 8.40289 4.09742 8.23634 4.06396H7.73598C7.60289 4.06396 7.50325 4.1636 7.4698 4.33015V5.0996C6.46689 5.23633 5.83343 5.8996 5.83343 6.73306C5.83343 7.83342 6.50034 8.26687 7.90034 8.43342C8.83343 8.59997 9.13671 8.79706 9.13671 9.33306C9.13671 9.86906 8.67052 10.2334 8.03707 10.2334C7.17016 10.2334 6.87343 9.86978 6.77016 9.36651C6.76063 9.31029 6.73169 9.25919 6.68836 9.22212C6.64504 9.18504 6.59009 9.16433 6.53307 9.1636H5.96362C5.93277 9.16291 5.9021 9.16847 5.87346 9.17995C5.84482 9.19144 5.81881 9.20861 5.79699 9.23043C5.77517 9.25225 5.758 9.27826 5.74651 9.3069C5.73503 9.33554 5.72946 9.36621 5.73016 9.39706V9.43051C5.86398 10.264 6.39707 10.864 7.49743 11.0305V11.8305C7.49743 11.9636 7.59707 12.064 7.76362 12.0974H8.26398C8.39707 12.0974 8.49743 11.9971 8.53016 11.8305V11.0305C9.53016 10.864 10.1971 10.1636 10.1971 9.26397L10.2 9.26687Z" fill="white"/>
<path d="M6.2996 12.7666C5.34048 12.4148 4.51251 11.777 3.92758 10.9394C3.34266 10.1019 3.029 9.10489 3.029 8.08329C3.029 7.0617 3.34266 6.06473 3.92758 5.22717C4.51251 4.3896 5.34048 3.75181 6.2996 3.40002C6.3636 3.37234 6.41734 3.32536 6.45333 3.26564C6.48932 3.20592 6.50575 3.13644 6.50032 3.06693V2.60002C6.50482 2.53878 6.48695 2.47798 6.45004 2.4289C6.41313 2.37982 6.35968 2.34579 6.2996 2.33311C6.25268 2.32822 6.20554 2.34007 6.16651 2.36657C4.95299 2.75227 3.89369 3.51414 3.14194 4.54189C2.39019 5.56964 1.98499 6.80995 1.98499 8.08329C1.98499 9.35663 2.39019 10.5969 3.14194 11.6247C3.89369 12.6524 4.95299 13.4143 6.16651 13.8C6.19422 13.8161 6.22536 13.8254 6.25736 13.8272C6.28937 13.8289 6.32133 13.8231 6.35063 13.8101C6.37994 13.7971 6.40575 13.7774 6.42595 13.7525C6.44616 13.7276 6.46018 13.6983 6.46687 13.6669C6.50033 13.6335 6.50032 13.6 6.50032 13.5331V13.0669C6.50032 12.9666 6.39996 12.8335 6.2996 12.7666ZM9.83342 2.36657C9.80565 2.35047 9.77447 2.34118 9.74242 2.33947C9.71037 2.33777 9.67837 2.34369 9.64905 2.35675C9.61973 2.36981 9.59394 2.38964 9.57377 2.41461C9.5536 2.43958 9.53965 2.46897 9.53305 2.50038C9.50033 2.53311 9.50033 2.56657 9.50033 2.63347V3.09966C9.50594 3.16688 9.52689 3.23192 9.56156 3.28979C9.59623 3.34766 9.6437 3.39681 9.70033 3.43347C10.6594 3.78527 11.4874 4.42305 12.0723 5.26062C12.6573 6.09819 12.9709 7.09515 12.9709 8.11675C12.9709 9.13834 12.6573 10.1353 12.0723 10.9729C11.4874 11.8104 10.6594 12.4482 9.70033 12.8C9.6364 12.8277 9.58274 12.8747 9.54687 12.9345C9.51101 12.9942 9.49473 13.0637 9.50033 13.1331V13.6C9.49581 13.6612 9.51357 13.7219 9.55033 13.7709C9.5871 13.82 9.64038 13.8541 9.70033 13.8669C9.74725 13.8718 9.79439 13.86 9.83342 13.8335C11.0465 13.4424 12.1042 12.6767 12.8546 11.6465C13.6049 10.6162 14.0092 9.37454 14.0092 8.10002C14.0092 6.8255 13.6049 5.58381 12.8546 4.55357C12.1042 3.52332 11.0465 2.75761 9.83342 2.36657Z" fill="white"/>
<path d="M19 8H30M30 8L26.5 11.5M30 8L26.5 4.5" stroke="#C8EBFF" stroke-linecap="round" stroke-linejoin="round"/>
<path d="M33.3666 8.42451C33.568 12.6083 37.1284 15.8364 41.3188 15.6347L44.3538 15.4885C43.8341 15.5135 43.3241 15.4858 42.829 15.41C39.3319 14.8749 36.578 11.9433 36.4016 8.27837C36.2251 4.61341 37.925 1.4308 41.3545 0.562137C41.84 0.439155 42.345 0.362552 42.8647 0.337529L40.5893 0.483667C36.3988 0.685442 33.1651 4.24068 33.3666 8.42451Z" fill="#FFA624"/>
<path fill-rule="evenodd" clip-rule="evenodd" d="M50.2259 7.9586C50.2259 12.1539 46.8249 15.5549 42.6296 15.5549C38.4343 15.5549 35.0333 12.1539 35.0333 7.9586C35.0333 3.76328 38.4343 0.362305 42.6296 0.362305C46.8249 0.362305 50.2259 3.76328 50.2259 7.9586ZM42.6296 13.276C45.5663 13.276 47.947 10.8953 47.947 7.9586C47.947 5.02188 45.5663 2.64119 42.6296 2.64119C39.6929 2.64119 37.3122 5.02188 37.3122 7.9586C37.3122 10.8953 39.6929 13.276 42.6296 13.276Z" fill="#FDCA5B"/>
<path d="M45.0317 7.24315V7.76603H39.6984V7.24315H45.0317ZM45.0317 8.37256V8.89544H39.6984V8.37256H45.0317ZM44.5271 5.2876V10.6418H43.782L41.0605 6.71505H41.0134V10.6418H40.2029V5.2876H40.9533L43.6748 9.21962H43.7245V5.2876H44.5271Z" fill="#FDCA5B"/>
</svg>
