<svg width="51" height="16" viewBox="0 0 51 16" fill="none" xmlns="http://www.w3.org/2000/svg">
<g clip-path="url(#clip0_516_8885)">
<path d="M14.1424 10.9527C14.0172 10.8265 13.8131 10.8265 13.688 10.9527L12.4078 12.2328C12.3128 12.3238 12.2847 12.4644 12.3374 12.5849C12.3878 12.7033 12.5032 12.781 12.6318 12.7833H12.9902C13.045 12.7852 13.0952 12.8139 13.1247 12.8601C13.154 12.9048 13.154 12.9626 13.1247 13.0073C12.6681 13.9035 11.7291 14.4494 10.7244 14.4027C10.2317 14.4043 9.92545 14.9387 10.1732 15.3646C10.2874 15.561 10.4972 15.6821 10.7244 15.6828C12.6446 15.6828 14.2064 14.4731 14.5008 12.9177C14.5184 12.8433 14.5844 12.7906 14.6608 12.7897H15.1985C15.3282 12.7908 15.4453 12.7119 15.493 12.5913C15.5445 12.4727 15.5164 12.3346 15.4225 12.2456L14.1424 10.9527Z" fill="#20BA90"/>
<path d="M1.5392 5.03215C1.5976 5.09261 1.67913 5.12521 1.7632 5.12175C1.84713 5.12441 1.92833 5.09195 1.9872 5.03215L3.26733 3.75195C3.4398 3.57608 3.35713 3.27941 3.11853 3.21801C3.09193 3.21115 3.06446 3.20775 3.03693 3.20795H2.67846C2.625 3.20741 2.57493 3.18121 2.54406 3.13748C2.519 3.08935 2.519 3.03201 2.54406 2.98388C3.00526 2.09048 3.94666 1.54968 4.95073 1.60135C5.44346 1.59975 5.74966 1.06535 5.50193 0.639481C5.38773 0.443081 5.17793 0.321948 4.95073 0.321214C3.19773 0.238348 1.62466 1.39015 1.17433 3.08628C1.15666 3.16068 1.09073 3.21341 1.01433 3.21435H0.476664C0.347464 3.21495 0.231331 3.29321 0.182197 3.41275C0.133264 3.53361 0.160931 3.67201 0.252597 3.76475L1.5392 5.03215Z" fill="#20BA90"/>
<path d="M6.71634 9.92221C6.71287 9.65847 6.49994 9.44561 6.23627 9.44214H4.63614C4.54774 9.44214 4.47607 9.51381 4.47607 9.60214V10.2422C4.47607 10.3306 4.54774 10.4023 4.63614 10.4023H6.23627C6.50001 10.3988 6.71287 10.1859 6.71634 9.92221Z" fill="#20BA90"/>
<path d="M6.23627 11.3561H4.63614C4.54774 11.3561 4.47607 11.4277 4.47607 11.5161V12.1561C4.47607 12.2445 4.54774 12.3162 4.63614 12.3162H6.23627C6.60581 12.3161 6.83681 11.9161 6.65201 11.5961C6.56627 11.4476 6.40781 11.3561 6.23627 11.3561Z" fill="#20BA90"/>
<path d="M5.43735 6.08179C1.74189 6.08165 -0.567713 10.082 1.27989 13.2824C3.12742 16.4829 7.74675 16.4831 9.59462 13.2828C10.016 12.553 10.2379 11.7251 10.2379 10.8823C10.2308 8.23399 8.08569 6.08885 5.43735 6.08179ZM4.15722 13.7627V13.4426C4.15722 13.3543 4.08555 13.2826 3.99722 13.2826C3.72802 13.2863 3.50982 13.0653 3.51715 12.7961V8.95572C3.51715 8.69059 3.73202 8.47565 3.99722 8.47565C4.08555 8.47565 4.15722 8.40405 4.15722 8.31565V8.00199C4.15722 7.63245 4.55722 7.40152 4.87729 7.58625C5.02582 7.67205 5.11729 7.83052 5.11729 8.00199V8.32205C5.11729 8.41045 5.18895 8.48205 5.27735 8.48205H5.59735C5.68575 8.48205 5.75742 8.41045 5.75742 8.32205V8.00199C5.75742 7.63245 6.15742 7.40152 6.47749 7.58625C6.62602 7.67205 6.71749 7.83052 6.71749 8.00199V8.46285C6.71729 8.52672 6.75502 8.58459 6.81349 8.61005C7.67035 8.97379 7.95195 10.0495 7.38315 10.7863C7.33822 10.8425 7.33822 10.9223 7.38315 10.9783C7.57075 11.2277 7.67395 11.5304 7.67762 11.8425C7.67542 12.4141 7.33675 12.9308 6.81349 13.161C6.75709 13.1856 6.71975 13.2403 6.71749 13.3018V13.7627C6.71749 14.1322 6.31742 14.3632 5.99742 14.1784C5.84889 14.0927 5.75735 13.9342 5.75735 13.7627V13.4426C5.75735 13.3543 5.68575 13.2826 5.59735 13.2826H5.27735C5.18895 13.2826 5.11729 13.3543 5.11729 13.4426V13.7627C5.11595 14.1322 4.71502 14.3617 4.39569 14.1757C4.24855 14.0901 4.15782 13.9329 4.15722 13.7627Z" fill="#20BA90"/>
<path d="M12.3168 7.36202C15.0268 7.36202 16.7205 4.42842 15.3655 2.08149C14.0105 -0.265444 10.6231 -0.265444 9.26805 2.08149C8.95905 2.61662 8.79639 3.22369 8.79639 3.84169C8.79639 5.78596 10.3725 7.36202 12.3168 7.36202ZM13.1169 1.75502C13.4865 1.75502 13.7174 2.15509 13.5327 2.47509C13.4469 2.62362 13.2884 2.71516 13.1169 2.71516H12.0288C11.9005 2.71862 11.7983 2.82362 11.7983 2.95196C11.7972 3.04816 11.8559 3.13489 11.9456 3.16962L13.0465 3.61122C13.5003 3.79449 13.7969 4.23556 13.7954 4.72496C13.7956 5.26322 13.4327 5.73396 12.9121 5.87069C12.8438 5.89062 12.7969 5.95322 12.7969 6.02429V6.08189C12.7949 6.45142 12.3937 6.68029 12.0746 6.49382C11.9281 6.40822 11.8377 6.25162 11.8367 6.08189C11.8367 5.99356 11.7651 5.92189 11.6767 5.92189H11.5167C11.1472 5.92189 10.9162 5.52182 11.101 5.20182C11.1867 5.05329 11.3452 4.96176 11.5167 4.96176H12.5985C12.7282 4.96542 12.8353 4.86116 12.8353 4.73136C12.8373 4.63342 12.7787 4.54436 12.6881 4.50736L11.5871 4.07209C10.7315 3.73009 10.567 2.59016 11.2909 2.02022C11.4167 1.92122 11.5609 1.84849 11.7151 1.80622C11.7883 1.78816 11.8389 1.72156 11.8367 1.64622V1.60142C11.8367 1.23189 12.2368 1.00089 12.5569 1.18569C12.7054 1.27142 12.7969 1.42989 12.7969 1.60142C12.7969 1.68982 12.8685 1.76142 12.9569 1.76142L13.1169 1.75502Z" fill="#20BA90"/>
</g>
<path d="M19 8H30M30 8L26.5 11.5M30 8L26.5 4.5" stroke="#C8EBFF" stroke-linecap="round" stroke-linejoin="round"/>
<path d="M33.3666 8.42451C33.568 12.6083 37.1284 15.8364 41.3188 15.6347L44.3538 15.4885C43.8341 15.5135 43.3241 15.4858 42.829 15.41C39.3319 14.8749 36.578 11.9433 36.4016 8.27837C36.2251 4.61341 37.925 1.4308 41.3545 0.562137C41.84 0.439155 42.345 0.362552 42.8647 0.337529L40.5893 0.483667C36.3988 0.685442 33.1651 4.24068 33.3666 8.42451Z" fill="#CC3681"/>
<path fill-rule="evenodd" clip-rule="evenodd" d="M50.2259 7.9586C50.2259 12.1539 46.8249 15.5549 42.6296 15.5549C38.4343 15.5549 35.0333 12.1539 35.0333 7.9586C35.0333 3.76328 38.4343 0.362305 42.6296 0.362305C46.8249 0.362305 50.2259 3.76328 50.2259 7.9586ZM42.6296 13.276C45.5663 13.276 47.947 10.8953 47.947 7.9586C47.947 5.02188 45.5663 2.64119 42.6296 2.64119C39.6929 2.64119 37.3122 5.02188 37.3122 7.9586C37.3122 10.8953 39.6929 13.276 42.6296 13.276Z" fill="#FD76B3"/>
<path fill-rule="evenodd" clip-rule="evenodd" d="M40.9978 5.45447V10.7878H41.9639V9.19922L42.5551 8.50131L44.1462 10.7878H44.6005L42.7631 8.26699L42.9922 8.03783L45.0547 10.7878L45.5131 10.7878L43.2214 7.80866L45.2894 5.45447H44.1098L42.029 7.90497H41.9639V5.45447H40.9978Z" fill="#FD76B3"/>
<defs>
<clipPath id="clip0_516_8885">
<rect width="16" height="16" fill="white"/>
</clipPath>
</defs>
</svg>
