<svg width="358" height="306" viewBox="0 0 358 306" fill="none" xmlns="http://www.w3.org/2000/svg">
<path d="M208.669 106.259C216.799 102.277 224.988 98.3783 233.771 95.6571C250.764 90.2841 271.814 89.329 287.586 98.57C302.77 107.109 310.995 127.375 304.156 143.435C297.368 161.061 273.238 165.382 259.528 152.97C247.694 142.453 251.424 126.848 265.421 119.752C277.101 113.542 292.444 113.279 305.656 115.999C323.556 119.935 339.478 128.464 353.588 139.359" stroke="#B9B5FF" stroke-width="4.0785" stroke-miterlimit="10" stroke-linecap="round"/>
<path d="M4.00177 171.312L194.448 112.55L200.111 100.954C200.823 99.4957 200.973 97.8679 200.627 96.423L187.955 101.241L3.99979 171.311L4.00177 171.312Z" fill="#8B85F4"/>
<path d="M4.003 171.327L187.867 101.289L200.532 96.4728C200.241 94.9854 199.442 93.6324 198.217 92.6671C198.026 92.506 197.819 92.3722 197.586 92.2262L161.218 67.2983C153.721 62.1584 143.663 62.5437 136.318 68.2759L4.00497 171.328L4.003 171.327Z" fill="#E6E4FF"/>
<path d="M151.331 100.683C152.493 102.704 153.415 104.862 154.106 107.099L156.769 115.646C160.413 126.802 157.916 140.916 150.211 150.401C140.936 161.822 126.542 163.457 117.645 152.9C116.218 151.208 115.018 149.302 114.048 147.234L113.998 147.125L109.93 138.343L109.891 138.259C103.832 125.595 106.038 108.053 116.176 97.1442C127.646 84.8023 143.524 87.1066 151.331 100.686L151.331 100.683Z" fill="white"/>
<path d="M115.796 96.9783C105.695 108.905 104.393 128.914 111.462 143.666L111.506 143.766C112.289 145.389 113.172 146.936 114.157 148.396C114.613 149.08 115.097 149.747 115.6 150.39C125.802 163.442 141.038 162.828 150.299 150.515C156.935 141.69 159.35 128.556 157.175 116.535C156.844 114.704 156.409 112.891 155.861 111.113C155.06 108.509 154.022 105.977 152.737 103.578" stroke="#B9B5FF" stroke-width="2.43594" stroke-miterlimit="10" stroke-linecap="round"/>
<path d="M131.948 96.61C127.337 96.832 122.872 99.2815 119.479 104.086C114.544 111.068 113.224 121.037 115.24 130.226" stroke="#B9B5FF" stroke-width="2.43594" stroke-miterlimit="10" stroke-linecap="round"/>
<path d="M128.368 152.294C134.827 153.992 141.439 151.26 145.792 144.476C148.541 140.19 150.027 134.869 150.301 129.373" stroke="#EFEFEF" stroke-width="2.43594" stroke-miterlimit="10" stroke-linecap="round"/>
<path d="M126.599 130.81C126.241 129.101 126.476 127.31 127.267 125.723C128.058 124.135 129.36 122.842 130.966 122.047L135.899 119.627C136.853 119.155 137.607 118.361 138.018 117.392C138.429 116.424 138.468 115.349 138.129 114.37C137.789 113.391 137.095 112.575 136.176 112.077C135.257 111.579 134.177 111.433 133.14 111.666L130.882 112.17C129.836 112.404 128.906 113.008 128.27 113.866C127.635 114.723 127.339 115.774 127.438 116.817C127.482 117.292 127.332 117.768 127.021 118.141C126.71 118.514 126.264 118.754 125.781 118.807C125.297 118.861 124.816 118.723 124.443 118.426C124.07 118.128 123.836 117.695 123.792 117.22C123.625 115.403 124.11 113.571 125.165 112.043C126.219 110.514 127.775 109.384 129.565 108.848L129.185 107.04C129.087 106.575 129.182 106.087 129.449 105.683C129.716 105.279 130.133 104.992 130.608 104.886C131.084 104.78 131.578 104.863 131.984 105.117C132.389 105.37 132.671 105.774 132.769 106.24L133.153 108.065C135.025 107.822 136.91 108.236 138.474 109.235C140.038 110.233 141.18 111.752 141.698 113.521C142.216 115.29 142.076 117.196 141.304 118.901C140.532 120.606 139.176 122 137.478 122.836L132.545 125.257C131.594 125.73 130.844 126.525 130.436 127.492C130.027 128.459 129.989 129.532 130.327 130.509C130.666 131.487 131.359 132.301 132.275 132.799C133.191 133.298 134.268 133.447 135.304 133.218L137.562 132.713C138.608 132.479 139.538 131.875 140.173 131.018C140.809 130.16 141.105 129.109 141.006 128.066C140.962 127.592 141.112 127.116 141.423 126.742C141.577 126.558 141.766 126.404 141.978 126.289C142.191 126.175 142.424 126.103 142.663 126.076C143.147 126.023 143.628 126.16 144.001 126.458C144.373 126.755 144.608 127.189 144.652 127.663C144.816 129.456 144.346 131.263 143.32 132.78C142.295 134.297 140.776 135.431 139.02 135.991L139.402 137.811C139.5 138.276 139.405 138.765 139.138 139.169C138.871 139.573 138.454 139.859 137.979 139.965C137.503 140.072 137.009 139.989 136.604 139.735C136.198 139.481 135.916 139.077 135.818 138.612L135.438 136.802C133.442 137.106 131.42 136.657 129.78 135.545C128.139 134.432 127.002 132.74 126.599 130.81Z" fill="#B9B5FF"/>
<path d="M4.00233 171.725L201.767 154.582L260.304 149.495C266.562 148.943 268.868 140.734 263.708 137.225L224.801 110.564C220.343 107.507 214.705 106.677 209.458 108.298L194.985 112.773L4.00331 171.723L4.00233 171.725Z" fill="#E6E4FF"/>
<path d="M4.00209 171.233L176.846 181.417C183.73 181.825 190.252 177.954 193.321 171.665L201.907 154.072L4.00308 171.231L4.00209 171.233Z" fill="#8B85F4"/>
</svg>
